<svg preserveAspectRatio="none" width="100%" height="100%" overflow="visible" style="display: block;" viewBox="0 0 20 20" fill="none" xmlns="http://www.w3.org/2000/svg">
<g id="Frame 2147240061">
<g id="Vector">
<path d="M13.424 13.924C13.5667 13.7406 13.7104 13.5469 13.8552 13.3406C15.3031 11.2885 16.1344 9.04271 16.1344 7.17604C16.1344 3.62187 13.5542 1.04167 10 1.04167C6.44583 1.04167 3.86562 3.62187 3.86562 7.17604C3.86562 9.04167 4.69583 11.2885 6.14479 13.3406C6.29062 13.5469 6.43438 13.7406 6.57604 13.924C4.82604 14.351 3.54167 15.1333 3.54167 16.25C3.54167 18.0281 6.79063 18.9583 10 18.9583C13.2094 18.9583 16.4583 18.0281 16.4583 16.25C16.4583 15.1323 15.174 14.351 13.424 13.924ZM5.11562 7.17604C5.11562 4.3 7.12396 2.29167 10 2.29167C12.876 2.29167 14.8844 4.3 14.8844 7.17604C14.8844 11.025 11.0042 15.2083 10 15.2083C8.99583 15.2083 5.11562 11.026 5.11562 7.17604ZM10 17.7083C6.56354 17.7083 4.79167 16.6865 4.79167 16.25C4.79167 15.9354 5.7125 15.3177 7.51146 14.9969C8.55312 16.0479 9.43438 16.4583 10 16.4583C10.5656 16.4583 11.4469 16.0479 12.4885 14.9969C14.2875 15.3177 15.2083 15.9365 15.2083 16.25C15.2083 16.6865 13.4365 17.7083 10 17.7083Z" fill="var(--fill-0, #666D85)"/>
<path d="M10 8.75417C10.8698 8.75417 11.574 8.04896 11.574 7.18022C11.574 6.31147 10.8688 5.60626 10 5.60626C9.13126 5.60626 8.42606 6.31147 8.42606 7.18022C8.42606 8.04896 9.13126 8.75417 10 8.75417Z" fill="var(--fill-0, #666D85)"/>
</g>
</g>
</svg>
