<svg preserveAspectRatio="none" width="100%" height="100%" overflow="visible" style="display: block;" viewBox="0 0 12.9167 14.7907" fill="none" xmlns="http://www.w3.org/2000/svg">
<g id="Group 1686557290">
<path id="Vector" d="M12.5969 9.95522C11.7156 8.63334 11.25 7.09583 11.25 5.50729V4.79167C11.25 2.15 9.1 0 6.45833 0C3.81667 0 1.66667 2.15 1.66667 4.79167V5.50729C1.66667 7.09583 1.20104 8.63438 0.319792 9.95522C0.110417 10.2688 0 10.6344 0 11.0115C0 12.0615 0.854167 12.9156 1.90417 12.9156H4.58333C4.58333 13.9511 5.42292 14.7906 6.45833 14.7906C7.49375 14.7906 8.33333 13.9511 8.33333 12.9156H11.0125C12.0625 12.9156 12.9167 12.0615 12.9167 11.0115C12.9167 10.6344 12.8062 10.2688 12.5969 9.95522ZM11.0125 11.6656H1.90417C1.54375 11.6656 1.25 11.3719 1.25 11.0115C1.25 10.8823 1.2875 10.7563 1.35938 10.649C2.37813 9.12189 2.91563 7.34375 2.91563 5.50729V4.79167C2.91563 2.83854 4.50417 1.25 6.45729 1.25C8.41042 1.25 9.99896 2.83854 9.99896 4.79167V5.50729C9.99896 7.34375 10.5375 9.12084 11.5563 10.649C11.6281 10.7563 11.6656 10.8823 11.6656 11.0115C11.6656 11.3719 11.3719 11.6656 11.0115 11.6656H11.0125Z" fill="var(--fill-0, #666D85)"/>
</g>
</svg>
