<svg preserveAspectRatio="none" width="100%" height="100%" overflow="visible" style="display: block;" viewBox="0 0 13.9521 14.0125" fill="none" xmlns="http://www.w3.org/2000/svg">
<g id="Group">
<path id="Vector" d="M7.00684 0.0517578C7.32283 0.0517932 7.58008 0.308995 7.58008 0.625C7.58008 0.941005 7.32283 1.19821 7.00684 1.19824C5.70765 1.19824 4.39697 1.29097 3.11133 1.47461C2.2686 1.59454 1.59552 2.26665 1.47559 3.10938C1.10616 5.69443 1.10614 8.31632 1.47559 10.9014C1.5956 11.744 2.26867 12.4162 3.11133 12.5361C4.3799 12.7173 5.67285 12.8091 6.95508 12.8115V12.8145H7.00684C7.32283 12.8145 7.58008 13.0717 7.58008 13.3877C7.57997 13.7036 7.32277 13.9599 7.00684 13.96C5.65304 13.96 4.28746 13.8642 2.94824 13.6729C1.60456 13.4802 0.532329 12.4071 0.34082 11.0645C-0.043884 8.3715 -0.0438659 5.64119 0.34082 2.94824C0.533364 1.60453 1.60566 0.531448 2.94824 0.339844C4.28746 0.148527 5.65304 0.0517578 7.00684 0.0517578Z" fill="var(--fill-0, #F43333)" stroke="var(--stroke-0, #F43333)" stroke-width="0.104167"/>
<path id="Vector_2" d="M9.93494 3.26605C10.1594 3.04249 10.5231 3.04269 10.7465 3.26605L13.4623 5.98285V5.9848L13.4886 6.01215C14.0369 6.56055 14.0369 7.45205 13.4886 8.00043L10.7445 10.7446C10.6328 10.8561 10.4861 10.9125 10.3402 10.9125C10.1942 10.9125 10.0467 10.8563 9.93494 10.7446C9.71167 10.5202 9.71199 10.1574 9.93494 9.93402L12.2904 7.57855H5.34119C5.0252 7.57855 4.76801 7.32128 4.76794 7.00531C4.76794 6.68928 5.02516 6.43207 5.34119 6.43207H12.2904L9.93494 4.0766C9.71176 3.85214 9.7119 3.48934 9.93494 3.26605Z" fill="var(--fill-0, #F43333)" stroke="var(--stroke-0, #F43333)" stroke-width="0.104167"/>
</g>
</svg>
