<svg preserveAspectRatio="none" width="100%" height="100%" overflow="visible" style="display: block;" viewBox="0 0 16 16" fill="none" xmlns="http://www.w3.org/2000/svg">
<g id="Group 1686557289">
<g id="Vector">
<path d="M8 2.03451e-05C3.58872 2.03451e-05 0 3.58874 0 8.00002C0 12.4113 3.58872 16 8 16C12.4113 16 16 12.4113 16 8.00002C16 3.58874 12.4113 2.03451e-05 8 2.03451e-05ZM1.23077 8.00002C1.23077 5.1354 3.01949 2.68309 5.53846 1.69642V2.25643C5.53846 3.1631 6.27282 3.89746 7.17949 3.89746H8.82051V5.53848C8.82051 5.99182 9.18769 6.35899 9.64103 6.35899H10.4338C10.8708 6.35899 11.2523 6.68925 11.281 7.12515C11.3118 7.60309 10.9333 8.00002 10.4626 8.00002H7.18051C6.27385 8.00002 5.53949 8.73438 5.53949 9.64105V11.2821H3.89846C3.44513 11.2821 3.07795 11.6493 3.07795 12.1026V12.639C1.93436 11.4267 1.2318 9.79387 1.2318 8.00002H1.23077ZM8.82051 14.718V13.7436C8.82051 13.2903 9.18769 12.9231 9.64103 12.9231C10.0944 12.9231 10.4615 12.5559 10.4615 12.1026V11.1416C10.4615 10.7067 10.6349 10.2892 10.9426 9.98155L14.5672 6.35694C14.6995 6.8831 14.7703 7.43387 14.7703 8.00002C14.7703 11.4544 12.1682 14.3108 8.82154 14.718H8.82051Z" fill="var(--fill-0, #666D85)"/>
<path d="M3.89744 8.00002H4.71795C5.17128 8.00002 5.53846 7.63284 5.53846 7.17951C5.53846 6.72617 5.17128 6.35899 4.71795 6.35899H3.89744C3.4441 6.35899 3.07692 6.72617 3.07692 7.17951C3.07692 7.63284 3.4441 8.00002 3.89744 8.00002Z" fill="var(--fill-0, #666D85)"/>
</g>
</g>
</svg>
