<svg preserveAspectRatio="none" width="100%" height="100%" overflow="visible" style="display: block;" viewBox="0 0 70.0131 21.379" fill="none" xmlns="http://www.w3.org/2000/svg">
<g id="Group">
<path id="Vector" d="M61.4338 21.3767C59.0504 21.3767 56.9912 20.5896 55.4777 19.1012C55.4709 19.0943 53.6709 17.2833 53.6675 17.2799V18.2489C53.6675 19.8803 52.6998 20.8539 51.0783 20.8539H48.5028C47.6898 20.8539 47.0462 20.6148 46.5879 20.1434C46.5777 20.1331 44.2512 17.7924 44.2489 17.7901V18.25C44.2489 19.8814 43.2813 20.855 41.6598 20.855H39.0581C38.2462 20.855 37.6015 20.6159 37.1433 20.1446C37.133 20.1343 36.5361 19.5336 36.5292 19.5268C36.1438 20.3757 35.3285 20.855 34.1914 20.855H31.5897C30.9177 20.855 30.3582 20.6891 29.925 20.3631C28.9289 21.0381 27.7861 21.379 26.516 21.379C24.6648 21.379 23.1252 20.7624 21.9404 19.5451L21.7607 19.3643L21.6993 19.3025L21.4514 19.0531L21.2638 18.8644L20.7669 18.3644L20.4872 18.083L20.3382 17.9331V18.2512C20.3382 19.8826 19.3705 20.8562 17.749 20.8562H15.1735C14.3605 20.8562 13.7169 20.6171 13.2587 20.1457C13.2484 20.1354 10.922 17.7947 10.9197 17.7924V18.2523C10.9197 19.8837 9.95202 20.8573 8.33053 20.8573H5.72887C4.91585 20.8573 4.27225 20.6182 3.81401 20.1469C3.80377 20.1366 0.715435 17.0304 0.705201 17.019C0.237857 16.558 0.000204853 15.9104 0.000204853 15.0936V3.13014C0.000204853 1.49872 0.967869 0.525122 2.58936 0.525122H5.19102C5.86304 0.525122 6.42249 0.691011 6.85572 1.01707C7.85181 0.342073 8.99459 0.00114343 10.2647 0.00114343C12.1182 0.00114343 13.6578 0.615503 14.8404 1.8282L14.9882 1.97693L15.0814 2.07075L15.3293 2.32015L15.5783 2.5707L15.9206 2.91506L16.0138 3.00887L16.2629 3.25942L16.5119 3.50997L16.9474 3.94814L17.1032 4.10488L17.1339 4.13577L17.1964 4.19869L17.2635 4.26619C17.6888 3.1965 18.2755 2.30985 19.0158 1.62113C20.1699 0.54686 21.6379 0.00114343 23.3788 0.00114343C24.65 0.00114343 25.7928 0.342073 26.7878 1.01592C27.1573 0.737917 27.6895 0.525122 28.4525 0.525122H31.0541C31.866 0.525122 32.5096 0.763086 32.9679 1.23444C32.9792 1.24588 33.5751 1.84537 33.583 1.85337C33.9685 1.00448 34.7838 0.525122 35.9209 0.525122H38.5225C39.1946 0.525122 39.754 0.691011 40.1873 1.01707C41.1833 0.342073 42.3261 0.00114343 43.5962 0.00114343C45.4474 0.00114343 46.9859 0.614359 48.1685 1.82477L48.2265 1.88312L48.5062 2.16456L48.7552 2.41511L49.0042 2.66566L49.0975 2.75947L49.16 2.82125L49.3465 3.00887L49.5955 3.25942L49.6581 3.32234L49.6888 3.35323L49.9367 3.60264L50.0299 3.69645L50.0924 3.75937L50.6212 4.29136L50.7792 4.44924C52.1642 1.636 54.883 0 58.2977 0C60.6446 0 62.6982 0.785967 64.2356 2.27324C64.2435 2.28125 64.2583 2.29498 64.272 2.30985C64.2811 2.31786 64.3538 2.39108 64.3641 2.40252L64.3607 2.39909C64.3732 2.41167 64.3845 2.42312 64.3959 2.43456C64.4073 2.44485 64.6336 2.67252 64.6449 2.6851C64.6563 2.6954 64.9747 3.01574 64.9861 3.02718H64.9849C64.9951 3.03519 65.0065 3.04777 65.0179 3.05921C65.0293 3.06951 65.1953 3.23654 65.2055 3.24798C65.2146 3.25713 65.226 3.26857 65.2373 3.28001C65.2487 3.29031 65.3511 3.39328 65.3613 3.40472L65.3556 3.399C65.3693 3.41273 65.3806 3.42417 65.392 3.43561C65.4011 3.44476 65.5989 3.64382 65.6092 3.65412C65.6194 3.66442 65.6296 3.67471 65.6399 3.68501L65.6353 3.68043C65.6467 3.69188 65.7536 3.79942 65.765 3.81086C65.7741 3.82001 66.2187 4.26734 66.2312 4.27992L66.2289 4.27763C66.2403 4.28793 66.4688 4.51903 66.4802 4.52933H66.479C66.4904 4.53848 66.5007 4.54992 66.512 4.56022L66.5075 4.55564C66.5188 4.56708 66.5314 4.57966 66.5439 4.59225C66.5518 4.60026 66.8441 4.89314 66.8532 4.90343L66.8475 4.89771C66.8622 4.91144 66.9043 4.95492 66.9157 4.96636C66.9236 4.97437 67.0919 5.14254 67.1022 5.15398L67.0988 5.15055C67.1113 5.16313 67.3398 5.39195 67.3501 5.40339C69.0671 7.04511 70.0131 9.47852 70.0131 12.2552C70.0131 15.0318 69.1921 17.1872 67.6377 18.8403C66.0777 20.5004 63.9354 21.3779 61.4406 21.3779L61.4338 21.3767Z" fill="var(--fill-0, black)"/>
<path id="Vector_2" d="M66.7197 6.04694C66.7095 6.03664 66.6993 6.02635 66.689 6.01605C66.6788 6.00576 66.6686 5.99431 66.6583 5.98516C66.6481 5.97487 66.6379 5.96457 66.6276 5.95427C66.6174 5.94398 66.6072 5.93368 66.5969 5.92338C66.5867 5.91309 66.5764 5.90279 66.5662 5.89249C66.556 5.8822 66.5458 5.87076 66.5355 5.8616C66.5253 5.85131 66.515 5.84101 66.5048 5.83071C66.4946 5.82042 66.4843 5.81012 66.4741 5.79983C66.4639 5.78953 66.4536 5.77923 66.4434 5.76894C66.4332 5.75864 66.4229 5.74834 66.4127 5.73805C66.4025 5.72775 66.3922 5.71745 66.382 5.70716C66.3718 5.69686 66.3615 5.68656 66.3513 5.67627C66.3411 5.66597 66.3308 5.65453 66.3206 5.64538C66.3104 5.63508 66.3001 5.62478 66.2899 5.61449C66.2797 5.60419 66.2694 5.5939 66.2592 5.5836C66.249 5.5733 66.2387 5.563 66.2285 5.55271C66.2183 5.54241 66.208 5.53097 66.1978 5.52182C66.1876 5.51152 66.1773 5.50122 66.1671 5.49093C66.1569 5.48063 66.1466 5.47034 66.1364 5.46004C66.1262 5.44974 66.1159 5.43945 66.1057 5.42915C66.0955 5.41885 66.0852 5.40741 66.075 5.39826C66.0648 5.38796 66.0545 5.37767 66.0443 5.36737C66.0341 5.35707 66.0238 5.34678 66.0136 5.33648C66.0034 5.32618 65.9931 5.31589 65.9829 5.30559C65.9727 5.29529 65.9624 5.285 65.9522 5.2747C65.942 5.2644 65.9317 5.25411 65.9215 5.24381C65.9113 5.23352 65.901 5.22322 65.8908 5.21292C65.8805 5.20263 65.8703 5.19233 65.8601 5.18203C65.8499 5.17174 65.8396 5.16144 65.8294 5.15114C65.8191 5.14085 65.8089 5.13055 65.7987 5.12025C65.7884 5.10996 65.7782 5.09966 65.768 5.08936C65.7577 5.07907 65.7475 5.06877 65.7373 5.05847C65.727 5.04818 65.7168 5.03788 65.7066 5.02759C65.6963 5.01729 65.6861 5.00699 65.6759 4.9967C65.6656 4.9864 65.6554 4.9761 65.6452 4.96581C65.6349 4.95551 65.6247 4.94521 65.6145 4.93492C65.6042 4.92462 65.594 4.91432 65.5838 4.90403C65.5735 4.89373 65.5633 4.88343 65.5531 4.87314C65.5428 4.86284 65.5326 4.85254 65.5224 4.84225C65.5121 4.83195 65.5019 4.82051 65.4917 4.81136C65.4814 4.80106 65.4712 4.79077 65.461 4.78047C65.4507 4.77017 65.4405 4.75988 65.4303 4.74958C65.42 4.73928 65.4098 4.72899 65.3996 4.71869C65.3893 4.70839 65.3791 4.69695 65.3689 4.6878C65.3586 4.6775 65.3484 4.66721 65.3382 4.65691C65.3279 4.64661 65.3177 4.63632 65.3075 4.62602C65.2972 4.61572 65.287 4.60543 65.2768 4.59513C65.2665 4.58484 65.2563 4.57339 65.2461 4.56424C65.2358 4.55395 65.2256 4.54365 65.2153 4.53335C65.2051 4.52306 65.1949 4.51276 65.1847 4.50246C65.1744 4.49217 65.1642 4.48187 65.1539 4.47157C65.1437 4.46128 65.1335 4.44984 65.1232 4.44068C65.113 4.43039 65.1028 4.42009 65.0925 4.40979C65.0823 4.3995 65.0721 4.3892 65.0618 4.37891C65.0516 4.36861 65.0414 4.35717 65.0311 4.34801C65.0209 4.33772 65.0107 4.32742 65.0004 4.31712C64.9902 4.30683 64.98 4.29653 64.9697 4.28623C64.9595 4.27594 64.9493 4.26564 64.939 4.25535C64.9288 4.24505 64.9186 4.23361 64.9083 4.22446C64.8981 4.21416 64.8879 4.20386 64.8776 4.19357C64.8674 4.18327 64.8572 4.17297 64.8469 4.16268C64.8367 4.15238 64.8265 4.14208 64.8162 4.13179C64.806 4.12149 64.7958 4.11005 64.7855 4.1009C64.7753 4.0906 64.7651 4.08031 64.7548 4.07001C64.7446 4.05971 64.7344 4.04942 64.7241 4.03912C64.7139 4.02882 64.7037 4.01853 64.6934 4.00823C64.6832 3.99793 64.673 3.98764 64.6627 3.97734C64.6525 3.96704 64.6423 3.9556 64.632 3.94645C64.6218 3.93615 64.6116 3.92586 64.6013 3.91556C64.5911 3.90526 64.5809 3.89497 64.5706 3.88467C64.5604 3.87437 64.5502 3.86293 64.5399 3.85378C64.5297 3.84349 64.5195 3.83319 64.5092 3.82289C64.499 3.8126 64.4888 3.8023 64.4785 3.792C64.4683 3.78171 64.458 3.77141 64.4478 3.76111C64.4376 3.75082 64.4274 3.73938 64.4171 3.73022C64.4069 3.71993 64.3966 3.70963 64.3864 3.69933C64.3762 3.68904 64.3659 3.67874 64.3557 3.66844C64.3455 3.65815 64.3352 3.64785 64.325 3.63755C64.3148 3.62726 64.3045 3.61582 64.2943 3.60666C64.2841 3.59637 64.2738 3.58607 64.2636 3.57578C64.2534 3.56548 64.2431 3.55518 64.2329 3.54489C64.2227 3.53459 64.2124 3.52429 64.2022 3.514C64.192 3.5037 64.1817 3.49226 64.1715 3.48311C64.1613 3.47281 64.151 3.46251 64.1408 3.45222C64.1306 3.44192 64.1203 3.43162 64.1101 3.42133C64.0999 3.41103 64.0896 3.40073 64.0794 3.39044C64.0692 3.38014 64.0589 3.3687 64.0487 3.35955C64.0385 3.34925 64.0282 3.33895 64.018 3.32866C64.0078 3.31836 63.9975 3.30807 63.9873 3.29777C63.9771 3.28747 63.9668 3.27718 63.9566 3.26688C63.9464 3.25658 63.9361 3.24629 63.9259 3.23599C63.9157 3.22569 63.9054 3.2154 63.8952 3.2051C63.885 3.1948 63.8747 3.18451 63.8645 3.17421C63.8543 3.16391 63.844 3.15362 63.8338 3.14332C63.8236 3.13303 63.8133 3.12273 63.8031 3.11243C63.7929 3.10213 63.7826 3.09184 63.7724 3.08154C63.7621 3.07125 63.7519 3.06095 63.7417 3.05065C63.7315 3.04036 63.7212 3.02892 63.711 3.01976C63.7007 3.00947 63.6905 2.99917 63.6803 2.98887C63.67 2.97858 63.6598 2.96828 63.6496 2.95798C62.3158 1.66863 60.4839 0.937576 58.3325 0.937576C54.7007 0.937576 52.0979 2.92709 51.1268 6.13732C50.9858 5.95427 50.8357 5.78266 50.6765 5.6225C50.6663 5.6122 50.6561 5.6019 50.6458 5.59161C50.6356 5.58131 50.6254 5.57101 50.6151 5.56072C50.6049 5.55042 50.5946 5.54012 50.5844 5.52983C50.5742 5.51953 50.5639 5.50923 50.5537 5.49894C50.5435 5.48864 50.5332 5.47834 50.523 5.46805C50.5128 5.45775 50.5025 5.44746 50.4923 5.43716C50.4821 5.42686 50.4718 5.41657 50.4616 5.40627C50.4514 5.39597 50.4411 5.38568 50.4309 5.37538C50.4207 5.36508 50.4104 5.35479 50.4002 5.34449C50.39 5.33419 50.3797 5.3239 50.3695 5.3136C50.3593 5.3033 50.349 5.29301 50.3388 5.28271C50.3286 5.27241 50.3183 5.26212 50.3081 5.25182C50.2979 5.24152 50.2876 5.23123 50.2774 5.22093C50.2672 5.21064 50.2569 5.20034 50.2467 5.19004C50.2365 5.17975 50.2262 5.16945 50.216 5.15915C50.2058 5.14886 50.1955 5.13856 50.1853 5.12826C50.1751 5.11797 50.1648 5.10767 50.1546 5.09737C50.1444 5.08708 50.1341 5.07678 50.1239 5.06648C50.1137 5.05619 50.1034 5.04589 50.0932 5.03559C50.083 5.0253 50.0727 5.015 50.0625 5.0047C50.0523 4.99441 50.042 4.98411 50.0318 4.97382C50.0216 4.96352 50.0113 4.95322 50.0011 4.94293C49.9909 4.93263 49.9806 4.92233 49.9704 4.91203C49.9602 4.90174 49.9499 4.89144 49.9397 4.88115C49.9295 4.87085 49.9192 4.86055 49.909 4.85026C49.8987 4.83996 49.8885 4.82966 49.8783 4.81937C49.868 4.80907 49.8578 4.79877 49.8476 4.78848C49.8373 4.77818 49.8271 4.76788 49.8169 4.75759C49.8066 4.74729 49.7964 4.73699 49.7862 4.7267C49.7759 4.7164 49.7657 4.7061 49.7555 4.69581C49.7452 4.68551 49.735 4.67522 49.7248 4.66492C49.7145 4.65462 49.7043 4.64433 49.6941 4.63403C49.6838 4.62373 49.6736 4.61344 49.6634 4.60314C49.6531 4.59284 49.6429 4.58255 49.6327 4.57225C49.6224 4.56195 49.6122 4.55166 49.602 4.54136C49.5917 4.53106 49.5815 4.52077 49.5713 4.51047C49.561 4.50017 49.5508 4.48988 49.5406 4.47958C49.5303 4.46928 49.5201 4.45899 49.5099 4.44869C49.4996 4.4384 49.4894 4.4281 49.4792 4.4178C49.4689 4.40751 49.4587 4.39721 49.4485 4.38691C49.4382 4.37662 49.428 4.36632 49.4178 4.35602C49.4075 4.34573 49.3973 4.33543 49.3871 4.32513C49.3768 4.31484 49.3666 4.30454 49.3564 4.29424C49.3461 4.28395 49.3359 4.27365 49.3257 4.26335C49.3154 4.25306 49.3052 4.24276 49.295 4.23246C49.2847 4.22217 49.2745 4.21187 49.2643 4.20158C49.254 4.19128 49.2438 4.18098 49.2336 4.17069C49.2233 4.16039 49.2131 4.15009 49.2029 4.1398C49.1926 4.1295 49.1824 4.1192 49.1721 4.10891C49.1619 4.09861 49.1517 4.08831 49.1414 4.07802C49.1312 4.06772 49.121 4.05742 49.1107 4.04713C49.1005 4.03683 49.0903 4.02653 49.08 4.01624C49.0698 4.00594 49.0596 3.99564 49.0493 3.98535C49.0391 3.97505 49.0289 3.96476 49.0186 3.95446C49.0084 3.94416 48.9982 3.93387 48.9879 3.92357C48.9777 3.91327 48.9675 3.90298 48.9572 3.89268C48.947 3.88238 48.9368 3.87209 48.9265 3.86179C48.9163 3.85149 48.9061 3.8412 48.8958 3.8309C48.8856 3.8206 48.8754 3.81031 48.8651 3.80001C48.8549 3.78971 48.8447 3.77942 48.8344 3.76912C48.8242 3.75882 48.814 3.74853 48.8037 3.73823C48.7935 3.72794 48.7833 3.71764 48.773 3.70734C48.7628 3.69705 48.7526 3.68675 48.7423 3.67645C48.7321 3.66616 48.7219 3.65586 48.7116 3.64556C48.7014 3.63527 48.6912 3.62497 48.6809 3.61467C48.6707 3.60438 48.6605 3.59408 48.6502 3.58378C48.64 3.57349 48.6298 3.56319 48.6195 3.55289C48.6093 3.5426 48.5991 3.5323 48.5888 3.522C48.5786 3.51171 48.5684 3.50141 48.5581 3.49111C48.5479 3.48082 48.5377 3.47052 48.5274 3.46023C48.5172 3.44993 48.507 3.43963 48.4967 3.42934C48.4865 3.41904 48.4762 3.40874 48.466 3.39845C48.4558 3.38815 48.4455 3.37785 48.4353 3.36756C48.4251 3.35726 48.4148 3.34696 48.4046 3.33667C48.3944 3.32637 48.3841 3.31607 48.3739 3.30578C48.3637 3.29548 48.3534 3.28518 48.3432 3.27489C48.333 3.26459 48.3227 3.25429 48.3125 3.244C48.3023 3.2337 48.292 3.2234 48.2818 3.21311C48.2716 3.20281 48.2613 3.19252 48.2511 3.18222C48.2409 3.17192 48.2306 3.16163 48.2204 3.15133C48.2102 3.14103 48.1999 3.13074 48.1897 3.12044C48.1795 3.11014 48.1692 3.09985 48.159 3.08955C48.1488 3.07925 48.1385 3.06896 48.1283 3.05866C48.1181 3.04836 48.1078 3.03807 48.0976 3.02777C48.0874 3.01747 48.0771 3.00718 48.0669 2.99688C48.0567 2.98658 48.0464 2.97629 48.0362 2.96599C48.026 2.9557 48.0157 2.9454 48.0055 2.9351C47.9953 2.92481 47.985 2.91451 47.9748 2.90421C47.9646 2.89392 47.9543 2.88362 47.9441 2.87332C47.9339 2.86303 47.9236 2.85273 47.9134 2.84243C47.9032 2.83214 47.8929 2.82184 47.8827 2.81154C47.8725 2.80125 47.8622 2.79095 47.852 2.78065C47.8418 2.77036 47.8315 2.76006 47.8213 2.74977C47.8111 2.73947 47.8008 2.72917 47.7906 2.71888C47.7803 2.70858 47.7701 2.69828 47.7599 2.68799C47.7496 2.67769 47.7394 2.66739 47.7292 2.6571C47.7189 2.6468 47.7087 2.6365 47.6985 2.62621C47.6882 2.61591 47.678 2.60561 47.6678 2.59532C47.6575 2.58502 47.6473 2.57472 47.6371 2.56443C47.6268 2.55413 47.6166 2.54383 47.6064 2.53354C46.6364 1.53935 45.3265 0.976475 43.6709 0.976475C42.2507 0.976475 41.1034 1.47414 40.2028 2.27498C40.2028 2.27498 40.2005 2.27384 40.2005 2.27269C40.1903 2.2624 40.18 2.25096 40.1698 2.2418C40.1596 2.23151 40.1493 2.22007 40.1391 2.21091C40.1289 2.20062 40.1186 2.18918 40.1084 2.18002C40.0982 2.16973 40.0879 2.15829 40.0777 2.14913C40.0675 2.13884 40.0572 2.1274 40.047 2.11824C40.0368 2.10795 40.0265 2.09651 40.0163 2.08736C40.0061 2.07706 39.9958 2.06562 39.9856 2.05647C39.9754 2.04617 39.9651 2.03473 39.9549 2.02558C39.9447 2.01528 39.9344 2.00384 39.9242 1.99469C39.914 1.98439 39.9037 1.97295 39.8935 1.9638C39.8833 1.9535 39.873 1.94206 39.8628 1.93291C39.5797 1.65033 39.1567 1.50389 38.6018 1.50389H36.0001C34.8812 1.50389 34.3092 2.07935 34.3092 3.2051V3.85721C34.299 3.84692 34.2888 3.83662 34.2785 3.82632C34.2683 3.81603 34.2581 3.80573 34.2478 3.79543C34.2376 3.78514 34.2274 3.77484 34.2171 3.76454C34.2069 3.75425 34.1967 3.74395 34.1864 3.73366C34.1762 3.72336 34.166 3.71306 34.1557 3.70277C34.1455 3.69247 34.1353 3.68217 34.125 3.67188C34.1148 3.66158 34.1046 3.65128 34.0943 3.64099C34.0841 3.63069 34.0739 3.62039 34.0636 3.6101C34.0534 3.5998 34.0432 3.5895 34.0329 3.57921C34.0227 3.56891 34.0125 3.55861 34.0022 3.54832C33.992 3.53802 33.9818 3.52772 33.9715 3.51743C33.9613 3.50713 33.9511 3.49684 33.9408 3.48654C33.9306 3.47624 33.9204 3.46595 33.9101 3.45565C33.8999 3.44535 33.8897 3.43506 33.8794 3.42476C33.8692 3.41446 33.859 3.40417 33.8487 3.39387C33.8385 3.38357 33.8283 3.37328 33.818 3.36298C33.8078 3.35268 33.7975 3.34239 33.7873 3.33209C33.7771 3.32179 33.7668 3.3115 33.7566 3.3012C33.7464 3.2909 33.7361 3.28061 33.7259 3.27031C33.7157 3.26001 33.7054 3.24972 33.6952 3.23942C33.685 3.22913 33.6747 3.21883 33.6645 3.20853C33.6543 3.19824 33.644 3.18794 33.6338 3.17764C33.6236 3.16735 33.6133 3.15705 33.6031 3.14675C33.5929 3.13646 33.5826 3.12616 33.5724 3.11586C33.5622 3.10557 33.5519 3.09527 33.5417 3.08497C33.5315 3.07468 33.5212 3.06438 33.511 3.05408C33.5008 3.04379 33.4905 3.03349 33.4803 3.0232C33.4701 3.0129 33.4598 3.0026 33.4496 2.9923C33.4394 2.98201 33.4291 2.97171 33.4189 2.96142C33.4087 2.95112 33.3984 2.94082 33.3882 2.93053C33.378 2.92023 33.3677 2.90993 33.3575 2.89964C33.3473 2.88934 33.337 2.87904 33.3268 2.86875C33.3166 2.85845 33.3063 2.84815 33.2961 2.83786C33.2859 2.82756 33.2756 2.81726 33.2654 2.80697C33.2552 2.79667 33.2449 2.78637 33.2347 2.77608C33.2245 2.76578 33.2142 2.75549 33.204 2.74519C33.1938 2.73489 33.1835 2.7246 33.1733 2.7143C33.1631 2.704 33.1528 2.69371 33.1426 2.68341C33.1324 2.67311 33.1221 2.66282 33.1119 2.65252C33.1016 2.64222 33.0914 2.63193 33.0812 2.62163C33.0709 2.61133 33.0607 2.60104 33.0505 2.59074C33.0402 2.58044 33.03 2.57015 33.0198 2.55985C33.0095 2.54955 32.9993 2.53926 32.9891 2.52896C32.9788 2.51867 32.9686 2.50837 32.9584 2.49807C32.9481 2.48778 32.9379 2.47748 32.9277 2.46718C32.9174 2.45689 32.9072 2.44659 32.897 2.43629C32.8867 2.426 32.8765 2.4157 32.8663 2.4054C32.856 2.39511 32.8458 2.38481 32.8356 2.37451C32.8253 2.36422 32.8151 2.35392 32.8049 2.34362C32.7946 2.33333 32.7844 2.32303 32.7742 2.31273C32.7639 2.30244 32.7537 2.29214 32.7435 2.28184C32.7332 2.27155 32.723 2.26125 32.7128 2.25096C32.7025 2.24066 32.6923 2.23036 32.6821 2.22007C32.6718 2.20977 32.6616 2.19947 32.6514 2.18918C32.6411 2.17888 32.6309 2.16858 32.6207 2.15829C32.6104 2.14799 32.6002 2.13769 32.59 2.1274C32.5797 2.1171 32.5695 2.1068 32.5593 2.09651C32.549 2.08621 32.5388 2.07591 32.5286 2.06562C32.5183 2.05532 32.5081 2.04503 32.4979 2.03473C32.4876 2.02443 32.4774 2.01414 32.4672 2.00384C32.4569 1.99354 32.4467 1.98325 32.4365 1.97295C32.1533 1.67778 31.7269 1.52791 31.1572 1.52791H28.5556C27.7755 1.52791 27.2547 1.81621 27.0205 2.36536C26.1097 1.52791 24.9385 1.00393 23.4819 1.00393C20.3719 1.00393 18.4855 2.98658 17.7725 6.09156C17.6577 5.95084 17.5383 5.81584 17.4132 5.68885C17.403 5.67856 17.3927 5.66826 17.3825 5.65796C17.3723 5.64767 17.362 5.63737 17.3518 5.62707C17.3416 5.61678 17.3313 5.60648 17.3211 5.59618C17.3109 5.58589 17.3006 5.57559 17.2904 5.56529C17.2802 5.555 17.2699 5.5447 17.2597 5.5344C17.2495 5.52411 17.2392 5.51381 17.229 5.50351C17.2188 5.49322 17.2085 5.48292 17.1983 5.47262C17.1881 5.46233 17.1778 5.45203 17.1676 5.44173C17.1574 5.43144 17.1471 5.42114 17.1369 5.41084C17.1267 5.40055 17.1164 5.39025 17.1062 5.37996C17.096 5.36966 17.0857 5.35936 17.0755 5.34907C17.0653 5.33877 17.055 5.32847 17.0448 5.31818C17.0346 5.30788 17.0243 5.29758 17.0141 5.28729C17.0039 5.27699 16.9936 5.26669 16.9834 5.2564C16.9732 5.2461 16.9629 5.2358 16.9527 5.22551C16.9425 5.21521 16.9322 5.20491 16.922 5.19462C16.9118 5.18432 16.9015 5.17403 16.8913 5.16373C16.8811 5.15343 16.8708 5.14314 16.8606 5.13284C16.8504 5.12254 16.8401 5.11225 16.8299 5.10195C16.8197 5.09165 16.8094 5.08136 16.7992 5.07106C16.789 5.06076 16.7787 5.05047 16.7685 5.04017C16.7582 5.02987 16.748 5.01958 16.7378 5.00928C16.7275 4.99898 16.7173 4.98869 16.7071 4.97839C16.6968 4.96809 16.6866 4.9578 16.6764 4.9475C16.6661 4.9372 16.6559 4.92691 16.6457 4.91661C16.6354 4.90632 16.6252 4.89602 16.615 4.88572C16.6047 4.87543 16.5945 4.86513 16.5843 4.85483C16.574 4.84454 16.5638 4.83424 16.5536 4.82394C16.5433 4.81365 16.5331 4.80335 16.5229 4.79305C16.5126 4.78276 16.5024 4.77246 16.4922 4.76216C16.4819 4.75187 16.4717 4.74157 16.4615 4.73127C16.4512 4.72098 16.441 4.71068 16.4308 4.70039C16.4205 4.69009 16.4103 4.67979 16.4001 4.6695C16.3898 4.6592 16.3796 4.6489 16.3694 4.63861C16.3591 4.62831 16.3489 4.61801 16.3387 4.60772C16.3284 4.59742 16.3182 4.58712 16.308 4.57683C16.2977 4.56653 16.2875 4.55623 16.2773 4.54594C16.267 4.53564 16.2568 4.52534 16.2466 4.51505C16.2363 4.50475 16.2261 4.49445 16.2159 4.48416C16.2056 4.47386 16.1954 4.46356 16.1852 4.45327C16.1749 4.44297 16.1647 4.43267 16.1545 4.42238C16.1442 4.41208 16.134 4.40179 16.1238 4.39149C16.1135 4.38119 16.1033 4.3709 16.0931 4.3606C16.0828 4.3503 16.0726 4.34001 16.0624 4.32971C16.0521 4.31941 16.0419 4.30912 16.0316 4.29882C16.0214 4.28852 16.0112 4.27823 16.0009 4.26793C15.9907 4.25763 15.9805 4.24734 15.9702 4.23704C15.96 4.22674 15.9498 4.21645 15.9395 4.20615C15.9293 4.19585 15.9191 4.18556 15.9088 4.17526C15.8986 4.16497 15.8884 4.15467 15.8781 4.14437C15.8679 4.13408 15.8577 4.12378 15.8474 4.11348C15.8372 4.10319 15.827 4.09289 15.8167 4.08259C15.8065 4.0723 15.7963 4.062 15.786 4.0517C15.7758 4.04141 15.7656 4.03111 15.7553 4.02081C15.7451 4.01052 15.7349 4.00022 15.7246 3.98992C15.7144 3.97963 15.7042 3.96933 15.6939 3.95903C15.6837 3.94874 15.6735 3.93844 15.6632 3.92814C15.653 3.91785 15.6428 3.90755 15.6325 3.89726C15.6223 3.88696 15.6121 3.87666 15.6018 3.86637C15.5916 3.85607 15.5814 3.84577 15.5711 3.83548C15.5609 3.82518 15.5507 3.81488 15.5404 3.80459C15.5302 3.79429 15.52 3.78399 15.5097 3.7737C15.4995 3.7634 15.4893 3.7531 15.479 3.74281C15.4688 3.73251 15.4586 3.72221 15.4483 3.71192C15.4381 3.70162 15.4279 3.69133 15.4176 3.68103C15.4074 3.67073 15.3972 3.66044 15.3869 3.65014C15.3767 3.63984 15.3665 3.62955 15.3562 3.61925C15.346 3.60895 15.3358 3.59866 15.3255 3.58836C15.3153 3.57806 15.305 3.56777 15.2948 3.55747C15.2846 3.54717 15.2743 3.53688 15.2641 3.52658C15.2539 3.51628 15.2436 3.50599 15.2334 3.49569C15.2232 3.48539 15.2129 3.4751 15.2027 3.4648C15.1925 3.45451 15.1822 3.44421 15.172 3.43391C15.1618 3.42362 15.1515 3.41332 15.1413 3.40302C15.1311 3.39273 15.1208 3.38243 15.1106 3.37213C15.1004 3.36184 15.0901 3.35154 15.0799 3.34124C15.0697 3.33095 15.0594 3.32065 15.0492 3.31035C15.039 3.30006 15.0287 3.28976 15.0185 3.27946C15.0083 3.26917 14.998 3.25887 14.9878 3.24857C14.9776 3.23828 14.9673 3.22798 14.9571 3.21768C14.9469 3.20739 14.9366 3.19709 14.9264 3.1868C14.9162 3.1765 14.9059 3.1662 14.8957 3.15591C14.8855 3.14561 14.8752 3.13531 14.865 3.12502C14.8548 3.11472 14.8445 3.10442 14.8343 3.09413C14.8241 3.08383 14.8138 3.07353 14.8036 3.06324C14.7934 3.05294 14.7831 3.04264 14.7729 3.03235C14.7627 3.02205 14.7524 3.01175 14.7422 3.00146C14.732 2.99116 14.7217 2.98086 14.7115 2.97057C14.7013 2.96027 14.691 2.94997 14.6808 2.93968C14.6706 2.92938 14.6603 2.91909 14.6501 2.90879C14.6399 2.89849 14.6296 2.8882 14.6194 2.8779C14.6092 2.8676 14.5989 2.85731 14.5887 2.84701C14.5784 2.83671 14.5682 2.82642 14.558 2.81612C14.5477 2.80582 14.5375 2.79553 14.5273 2.78523C14.517 2.77493 14.5068 2.76464 14.4966 2.75434C14.4863 2.74404 14.4761 2.73375 14.4659 2.72345C14.4556 2.71315 14.4454 2.70286 14.4352 2.69256C14.4249 2.68227 14.4147 2.67197 14.4045 2.66167C14.3942 2.65138 14.384 2.64108 14.3738 2.63078C14.3635 2.62049 14.3533 2.61019 14.3431 2.59989C13.3731 1.60571 12.0632 1.04283 10.4076 1.04283C8.98738 1.04283 7.84005 1.5405 6.93948 2.34134C6.93948 2.34134 6.9372 2.34019 6.9372 2.33905C6.92697 2.32875 6.91673 2.31731 6.9065 2.30816C6.89627 2.29786 6.88603 2.28642 6.8758 2.27727C6.86556 2.26697 6.85533 2.25553 6.8451 2.24638C6.83486 2.23608 6.82463 2.22464 6.8144 2.21549C6.80416 2.20519 6.79393 2.19375 6.78369 2.1846C6.77346 2.1743 6.76323 2.16286 6.75299 2.15371C6.74276 2.14341 6.73253 2.13197 6.72229 2.12282C6.71206 2.11252 6.70182 2.10108 6.69159 2.09193C6.68136 2.08163 6.67112 2.07019 6.66089 2.06104C6.65065 2.05074 6.64042 2.0393 6.63019 2.03015C6.61995 2.01986 6.60972 2.00842 6.59949 1.99926C6.31635 1.71668 5.89335 1.57024 5.33845 1.57024H2.73679C1.61789 1.57024 1.04594 2.1457 1.04594 3.27146V15.2349C1.04594 15.808 1.1949 16.2382 1.48826 16.5219C1.4985 16.5322 1.50873 16.5425 1.51897 16.5528C1.5292 16.5631 1.53943 16.5734 1.54967 16.5837C1.5599 16.594 1.57014 16.6043 1.58037 16.6146C1.5906 16.6249 1.60084 16.6352 1.61107 16.6455C1.6213 16.6558 1.63154 16.6661 1.64177 16.6764C1.65201 16.6867 1.66224 16.697 1.67247 16.7073C1.68271 16.7176 1.69294 16.7279 1.70317 16.7382C1.71341 16.7485 1.72364 16.7588 1.73388 16.7691C1.74411 16.7794 1.75434 16.7896 1.76458 16.7999C1.77481 16.8102 1.78505 16.8205 1.79528 16.8308C1.80551 16.8411 1.81575 16.8514 1.82598 16.8617C1.83621 16.872 1.84645 16.8823 1.85668 16.8926C1.86692 16.9029 1.87715 16.9132 1.88738 16.9235C1.89762 16.9338 1.90785 16.9441 1.91808 16.9544C1.92832 16.9647 1.93855 16.975 1.94879 16.9853C1.95902 16.9956 1.96925 17.0059 1.97949 17.0162C1.98972 17.0265 1.99996 17.0368 2.01019 17.0471C2.02042 17.0574 2.03066 17.0677 2.04089 17.078C2.05112 17.0883 2.06136 17.0985 2.07159 17.1088C2.08183 17.1191 2.09206 17.1294 2.10229 17.1397C2.11253 17.15 2.12276 17.1603 2.13299 17.1706C2.14323 17.1809 2.15346 17.1912 2.1637 17.2015C2.17393 17.2118 2.18416 17.2221 2.1944 17.2324C2.20463 17.2427 2.21487 17.253 2.2251 17.2633C2.23533 17.2736 2.24557 17.2839 2.2558 17.2942C2.26603 17.3045 2.27627 17.3148 2.2865 17.3251C2.29674 17.3354 2.30697 17.3457 2.3172 17.356C2.32744 17.3663 2.33767 17.3766 2.3479 17.3868C2.35814 17.3971 2.36837 17.4074 2.37861 17.4177C2.38884 17.428 2.39907 17.4383 2.40931 17.4486C2.41954 17.4589 2.42978 17.4692 2.44001 17.4795C2.45024 17.4898 2.46048 17.5001 2.47071 17.5104C2.48094 17.5207 2.49118 17.531 2.50141 17.5413C2.51165 17.5516 2.52188 17.5619 2.53211 17.5722C2.54235 17.5825 2.55258 17.5928 2.56281 17.6031C2.57305 17.6134 2.58328 17.6237 2.59352 17.634C2.60375 17.6443 2.61398 17.6546 2.62422 17.6649C2.63445 17.6752 2.64469 17.6854 2.65492 17.6957C2.66515 17.706 2.67539 17.7163 2.68562 17.7266C2.69585 17.7369 2.70609 17.7472 2.71632 17.7575C2.72656 17.7678 2.73679 17.7781 2.74702 17.7884C2.75726 17.7987 2.76749 17.809 2.77773 17.8193C2.78796 17.8296 2.79819 17.8399 2.80843 17.8502C2.81866 17.8605 2.82889 17.8708 2.83913 17.8811C2.84936 17.8914 2.8596 17.9017 2.86983 17.912C2.88006 17.9223 2.8903 17.9326 2.90053 17.9429C2.91076 17.9532 2.921 17.9635 2.93123 17.9738C2.94147 17.984 2.9517 17.9943 2.96193 18.0046C2.97217 18.0149 2.9824 18.0252 2.99264 18.0355C3.00287 18.0458 3.0131 18.0561 3.02334 18.0664C3.03357 18.0767 3.0438 18.087 3.05404 18.0973C3.06427 18.1076 3.07451 18.1179 3.08474 18.1282C3.09497 18.1385 3.10521 18.1488 3.11544 18.1591C3.12567 18.1694 3.13591 18.1797 3.14614 18.19C3.15638 18.2003 3.16661 18.2106 3.17684 18.2209C3.18708 18.2312 3.19731 18.2415 3.20755 18.2518C3.21778 18.2621 3.22801 18.2724 3.23825 18.2826C3.24848 18.2929 3.25871 18.3032 3.26895 18.3135C3.27918 18.3238 3.28942 18.3341 3.29965 18.3444C3.30988 18.3547 3.32012 18.365 3.33035 18.3753C3.34058 18.3856 3.35082 18.3959 3.36105 18.4062C3.37129 18.4165 3.38152 18.4268 3.39175 18.4371C3.40199 18.4474 3.41222 18.4577 3.42246 18.468C3.43269 18.4783 3.44292 18.4886 3.45316 18.4989C3.46339 18.5092 3.47362 18.5195 3.48386 18.5298C3.49409 18.5401 3.50433 18.5504 3.51456 18.5607C3.52479 18.571 3.53503 18.5812 3.54526 18.5915C3.55549 18.6018 3.56573 18.6121 3.57596 18.6224C3.5862 18.6327 3.59643 18.643 3.60666 18.6533C3.6169 18.6636 3.62713 18.6739 3.63737 18.6842C3.6476 18.6945 3.65783 18.7048 3.66807 18.7151C3.6783 18.7254 3.68853 18.7357 3.69877 18.746C3.709 18.7563 3.71924 18.7666 3.72947 18.7769C3.7397 18.7872 3.74994 18.7975 3.76017 18.8078C3.77041 18.8181 3.78064 18.8284 3.79087 18.8387C3.80111 18.849 3.81134 18.8593 3.82157 18.8695C3.83181 18.8798 3.84204 18.8901 3.85228 18.9004C3.86251 18.9107 3.87274 18.921 3.88298 18.9313C3.89321 18.9416 3.90344 18.9519 3.91368 18.9622C3.92391 18.9725 3.93415 18.9828 3.94438 18.9931C3.95461 19.0034 3.96485 19.0137 3.97508 19.024C3.98532 19.0343 3.99555 19.0446 4.00578 19.0549C4.01602 19.0652 4.02625 19.0755 4.03648 19.0858C4.04672 19.0961 4.05695 19.1064 4.06719 19.1167C4.07742 19.127 4.08765 19.1373 4.09789 19.1476C4.10812 19.1578 4.11835 19.1681 4.12859 19.1784C4.13882 19.1887 4.14906 19.199 4.15929 19.2093C4.16952 19.2196 4.17976 19.2299 4.18999 19.2402C4.20023 19.2505 4.21046 19.2608 4.22069 19.2711C4.23093 19.2814 4.24116 19.2917 4.25139 19.302C4.26163 19.3123 4.27186 19.3226 4.2821 19.3329C4.29233 19.3432 4.30256 19.3535 4.3128 19.3638C4.32303 19.3741 4.33326 19.3844 4.3435 19.3947C4.35373 19.405 4.36397 19.4153 4.3742 19.4256C4.38443 19.4359 4.39467 19.4462 4.4049 19.4565C4.41514 19.4667 4.42537 19.477 4.4356 19.4873C4.44584 19.4976 4.45607 19.5079 4.4663 19.5182C4.47654 19.5285 4.48677 19.5388 4.49701 19.5491C4.50724 19.5594 4.51747 19.5697 4.52771 19.58C4.53794 19.5903 4.54817 19.6006 4.55841 19.6109C4.84154 19.9061 5.26795 20.0559 5.83764 20.0559H8.4393C9.5582 20.0559 10.1302 19.4805 10.1302 18.3547V12.3599C10.1302 11.9526 10.2495 11.5819 10.4508 11.2787V15.1948C10.4508 15.768 10.5998 16.1982 10.8931 16.4819C10.9034 16.4922 10.9136 16.5025 10.9238 16.5128C10.9341 16.5231 10.9443 16.5334 10.9545 16.5437C10.9648 16.554 10.975 16.5643 10.9852 16.5746C10.9955 16.5849 11.0057 16.5952 11.0159 16.6055C11.0262 16.6158 11.0364 16.6261 11.0466 16.6363C11.0569 16.6466 11.0671 16.6569 11.0773 16.6672C11.0876 16.6775 11.0978 16.6878 11.108 16.6981C11.1183 16.7084 11.1285 16.7187 11.1388 16.729C11.149 16.7393 11.1592 16.7496 11.1695 16.7599C11.1797 16.7702 11.1899 16.7805 11.2002 16.7908C11.2104 16.8011 11.2206 16.8114 11.2309 16.8217C11.2411 16.832 11.2513 16.8423 11.2616 16.8526C11.2718 16.8629 11.282 16.8732 11.2923 16.8835C11.3025 16.8938 11.3127 16.9041 11.323 16.9144C11.3332 16.9246 11.3434 16.9349 11.3537 16.9452C11.3639 16.9555 11.3741 16.9658 11.3844 16.9761C11.3946 16.9864 11.4048 16.9967 11.4151 17.007C11.4253 17.0173 11.4355 17.0276 11.4458 17.0379C11.456 17.0482 11.4662 17.0585 11.4765 17.0688C11.4867 17.0791 11.4969 17.0894 11.5072 17.0997C11.5174 17.11 11.5276 17.1203 11.5379 17.1306C11.5481 17.1409 11.5583 17.1512 11.5686 17.1615C11.5788 17.1718 11.589 17.1821 11.5993 17.1924C11.6095 17.2027 11.6197 17.213 11.63 17.2232C11.6402 17.2335 11.6504 17.2438 11.6607 17.2541C11.6709 17.2644 11.6811 17.2747 11.6914 17.285C11.7016 17.2953 11.7118 17.3056 11.7221 17.3159C11.7323 17.3262 11.7425 17.3365 11.7528 17.3468C11.763 17.3571 11.7732 17.3674 11.7835 17.3777C11.7937 17.388 11.8039 17.3983 11.8142 17.4086C11.8244 17.4189 11.8346 17.4292 11.8449 17.4395C11.8551 17.4498 11.8654 17.4601 11.8756 17.4704C11.8858 17.4807 11.8961 17.491 11.9063 17.5013C11.9165 17.5116 11.9268 17.5218 11.937 17.5321C11.9472 17.5424 11.9575 17.5527 11.9677 17.563C11.9779 17.5733 11.9882 17.5836 11.9984 17.5939C12.0086 17.6042 12.0189 17.6145 12.0291 17.6248C12.0393 17.6351 12.0496 17.6454 12.0598 17.6557C12.07 17.666 12.0803 17.6763 12.0905 17.6866C12.1007 17.6969 12.111 17.7072 12.1212 17.7175C12.1314 17.7278 12.1417 17.7381 12.1519 17.7484C12.1621 17.7587 12.1724 17.769 12.1826 17.7793C12.1928 17.7896 12.2031 17.7999 12.2133 17.8102C12.2235 17.8204 12.2338 17.8307 12.244 17.841C12.2542 17.8513 12.2645 17.8616 12.2747 17.8719C12.2849 17.8822 12.2952 17.8925 12.3054 17.9028C12.3156 17.9131 12.3259 17.9234 12.3361 17.9337C12.3463 17.944 12.3566 17.9543 12.3668 17.9646C12.377 17.9749 12.3873 17.9852 12.3975 17.9955C12.4077 18.0058 12.418 18.0161 12.4282 18.0264C12.4384 18.0367 12.4487 18.047 12.4589 18.0573C12.4691 18.0676 12.4794 18.0779 12.4896 18.0882C12.4998 18.0985 12.5101 18.1087 12.5203 18.119C12.5305 18.1293 12.5408 18.1396 12.551 18.1499C12.5613 18.1602 12.5715 18.1705 12.5817 18.1808C12.592 18.1911 12.6022 18.2014 12.6124 18.2117C12.6227 18.222 12.6329 18.2323 12.6431 18.2426C12.6534 18.2529 12.6636 18.2632 12.6738 18.2735C12.6841 18.2838 12.6943 18.2941 12.7045 18.3044C12.7148 18.3147 12.725 18.325 12.7352 18.3353C12.7455 18.3456 12.7557 18.3559 12.7659 18.3662C12.7762 18.3765 12.7864 18.3868 12.7966 18.3971C12.8069 18.4074 12.8171 18.4176 12.8273 18.4279C12.8376 18.4382 12.8478 18.4485 12.858 18.4588C12.8683 18.4691 12.8785 18.4794 12.8887 18.4897C12.899 18.5 12.9092 18.5103 12.9194 18.5206C12.9297 18.5309 12.9399 18.5412 12.9501 18.5515C12.9604 18.5618 12.9706 18.5721 12.9808 18.5824C12.9911 18.5927 13.0013 18.603 13.0115 18.6133C13.0218 18.6236 13.032 18.6339 13.0422 18.6442C13.0525 18.6545 13.0627 18.6648 13.0729 18.6751C13.0832 18.6854 13.0934 18.6957 13.1036 18.7059C13.1139 18.7162 13.1241 18.7265 13.1343 18.7368C13.1446 18.7471 13.1548 18.7574 13.165 18.7677C13.1753 18.778 13.1855 18.7883 13.1957 18.7986C13.206 18.8089 13.2162 18.8192 13.2264 18.8295C13.2367 18.8398 13.2469 18.8501 13.2571 18.8604C13.2674 18.8707 13.2776 18.881 13.2879 18.8913C13.2981 18.9016 13.3083 18.9119 13.3186 18.9222C13.3288 18.9325 13.339 18.9428 13.3493 18.9531C13.3595 18.9634 13.3697 18.9737 13.38 18.984C13.3902 18.9942 13.4004 19.0045 13.4107 19.0148C13.4209 19.0251 13.4311 19.0354 13.4414 19.0457C13.4516 19.056 13.4618 19.0663 13.4721 19.0766C13.4823 19.0869 13.4925 19.0972 13.5028 19.1075C13.513 19.1178 13.5232 19.1281 13.5335 19.1384C13.5437 19.1487 13.5539 19.159 13.5642 19.1693C13.5744 19.1796 13.5846 19.1899 13.5949 19.2002C13.6051 19.2105 13.6153 19.2208 13.6256 19.2311C13.6358 19.2414 13.646 19.2517 13.6563 19.262C13.6665 19.2723 13.6767 19.2826 13.687 19.2929C13.6972 19.3031 13.7074 19.3134 13.7177 19.3237C13.7279 19.334 13.7381 19.3443 13.7484 19.3546C13.7586 19.3649 13.7688 19.3752 13.7791 19.3855C13.7893 19.3958 13.7995 19.4061 13.8098 19.4164C13.82 19.4267 13.8302 19.437 13.8405 19.4473C13.8507 19.4576 13.8609 19.4679 13.8712 19.4782C13.8814 19.4885 13.8916 19.4988 13.9019 19.5091C13.9121 19.5194 13.9223 19.5297 13.9326 19.54C13.9428 19.5503 13.953 19.5606 13.9633 19.5709C14.2464 19.866 14.6728 20.0159 15.2425 20.0159H17.818C18.9369 20.0159 19.5089 19.4404 19.5089 18.3147V15.8172C19.5191 15.8286 19.5305 15.8389 19.5418 15.8504C19.5521 15.8607 19.5623 15.871 19.5725 15.8813C19.5828 15.8916 19.593 15.9019 19.6033 15.9122C19.6135 15.9225 19.6237 15.9328 19.634 15.943C19.6442 15.9533 19.6544 15.9636 19.6647 15.9739C19.6749 15.9842 19.6851 15.9945 19.6954 16.0048C19.7056 16.0151 19.7158 16.0254 19.7261 16.0357C19.7363 16.046 19.7465 16.0563 19.7568 16.0666C19.767 16.0769 19.7772 16.0872 19.7875 16.0975C19.7977 16.1078 19.8079 16.1181 19.8182 16.1284C19.8284 16.1387 19.8386 16.149 19.8489 16.1593C19.8591 16.1696 19.8693 16.1799 19.8796 16.1902C19.8898 16.2005 19.9 16.2108 19.9103 16.2211C19.9205 16.2313 19.9307 16.2416 19.941 16.2519C19.9512 16.2622 19.9614 16.2725 19.9717 16.2828C19.9819 16.2931 19.9921 16.3034 20.0024 16.3137C20.0126 16.324 20.0228 16.3343 20.0331 16.3446C20.0433 16.3549 20.0535 16.3652 20.0638 16.3755C20.074 16.3858 20.0842 16.3961 20.0945 16.4064C20.1047 16.4167 20.1149 16.427 20.1252 16.4373C20.1354 16.4476 20.1456 16.4579 20.1559 16.4682C20.1661 16.4785 20.1763 16.4888 20.1866 16.4991C20.1968 16.5094 20.207 16.5197 20.2173 16.53C20.2275 16.5402 20.2377 16.5505 20.248 16.5608C20.2582 16.5711 20.2684 16.5814 20.2787 16.5917C20.2889 16.602 20.2991 16.6123 20.3094 16.6226C20.3196 16.6329 20.3299 16.6432 20.3401 16.6535C20.3503 16.6638 20.3606 16.6741 20.3708 16.6844C20.381 16.6947 20.3913 16.705 20.4015 16.7153C20.4117 16.7256 20.422 16.7359 20.4322 16.7462C20.4424 16.7565 20.4527 16.7668 20.4629 16.7771C20.4731 16.7874 20.4834 16.7977 20.4936 16.808C20.5038 16.8183 20.5141 16.8285 20.5243 16.8388C20.5345 16.8491 20.5448 16.8594 20.555 16.8697C20.5652 16.88 20.5755 16.8903 20.5857 16.9006C20.5959 16.9109 20.6062 16.9212 20.6164 16.9315C20.6266 16.9418 20.6369 16.9521 20.6471 16.9624C20.6573 16.9727 20.6676 16.983 20.6778 16.9933C20.688 17.0036 20.6983 17.0139 20.7085 17.0242C20.7187 17.0345 20.729 17.0448 20.7392 17.0551C20.7494 17.0654 20.7597 17.0757 20.7699 17.086C20.7801 17.0963 20.7904 17.1066 20.8006 17.1169C20.8108 17.1271 20.8211 17.1374 20.8313 17.1477C20.8415 17.158 20.8518 17.1683 20.862 17.1786C20.8722 17.1889 20.8825 17.1992 20.8927 17.2095C20.9029 17.2198 20.9132 17.2301 20.9234 17.2404C20.9336 17.2507 20.9439 17.261 20.9541 17.2713C20.9643 17.2816 20.9746 17.2919 20.9848 17.3022C20.995 17.3125 21.0053 17.3228 21.0155 17.3331C21.0258 17.3434 21.036 17.3537 21.0462 17.364C21.0565 17.3743 21.0667 17.3846 21.0769 17.3949C21.0872 17.4052 21.0974 17.4154 21.1076 17.4257C21.1179 17.436 21.1281 17.4463 21.1383 17.4566C21.1486 17.4669 21.1588 17.4772 21.169 17.4875C21.1793 17.4978 21.1895 17.5081 21.1997 17.5184C21.21 17.5287 21.2202 17.539 21.2304 17.5493C21.2407 17.5596 21.2509 17.5699 21.2611 17.5802C21.2714 17.5905 21.2816 17.6008 21.2918 17.6111C21.3021 17.6214 21.3123 17.6317 21.3225 17.642C21.3328 17.6523 21.343 17.6626 21.3532 17.6729C21.3635 17.6832 21.3737 17.6935 21.3839 17.7038C21.3942 17.714 21.4044 17.7243 21.4146 17.7346C21.4249 17.7449 21.4351 17.7552 21.4453 17.7655C21.4556 17.7758 21.4658 17.7861 21.476 17.7964C21.4863 17.8067 21.4965 17.817 21.5067 17.8273C21.517 17.8376 21.5272 17.8479 21.5374 17.8582C21.5477 17.8685 21.5579 17.8788 21.5681 17.8891C21.5784 17.8994 21.5886 17.9097 21.5988 17.92C21.6091 17.9303 21.6193 17.9406 21.6295 17.9509C21.6398 17.9612 21.65 17.9715 21.6602 17.9818C21.6705 17.9921 21.6807 18.0024 21.6909 18.0126C21.7012 18.0229 21.7114 18.0332 21.7216 18.0435C21.7319 18.0538 21.7421 18.0641 21.7524 18.0744C21.7626 18.0847 21.7728 18.095 21.7831 18.1053C21.7933 18.1156 21.8035 18.1259 21.8138 18.1362C21.824 18.1465 21.8342 18.1568 21.8445 18.1671C21.8547 18.1774 21.8649 18.1877 21.8752 18.198C21.8854 18.2083 21.8956 18.2186 21.9059 18.2289C21.9161 18.2392 21.9263 18.2495 21.9366 18.2598C21.9468 18.2701 21.957 18.2804 21.9673 18.2907C21.9775 18.301 21.9877 18.3112 21.998 18.3215C22.0082 18.3318 22.0184 18.3421 22.0287 18.3524C22.0389 18.3627 22.0491 18.373 22.0594 18.3833C22.0696 18.3936 22.0798 18.4039 22.0901 18.4142C22.1003 18.4245 22.1105 18.4348 22.1208 18.4451C22.131 18.4554 22.1412 18.4657 22.1515 18.476C22.1617 18.4863 22.1719 18.4966 22.1822 18.5069C22.1924 18.5172 22.2026 18.5275 22.2129 18.5378C22.2231 18.5481 22.2333 18.5584 22.2436 18.5687C22.2538 18.579 22.264 18.5893 22.2743 18.5996C22.2845 18.6098 22.2947 18.6201 22.305 18.6304C22.3152 18.6407 22.3254 18.651 22.3357 18.6613C22.3459 18.6716 22.3561 18.6819 22.3664 18.6922C22.3766 18.7025 22.3868 18.7128 22.3971 18.7231C22.4073 18.7334 22.4175 18.7437 22.4278 18.754C22.438 18.7643 22.4483 18.7746 22.4585 18.7849C22.4687 18.7952 22.479 18.8055 22.4892 18.8158C22.4994 18.8261 22.5097 18.8364 22.5199 18.8467C22.5301 18.857 22.5404 18.8673 22.5506 18.8776C22.5608 18.8879 22.5711 18.8981 22.5813 18.9084C22.5915 18.9187 22.6018 18.929 22.612 18.9393C23.5819 19.9347 24.8907 20.5021 26.5475 20.5021C27.9677 20.5021 29.115 20.0033 30.0156 19.2036C30.0156 19.2036 30.0179 19.2048 30.0179 19.2059C30.0281 19.2162 30.0383 19.2276 30.0486 19.2368C30.0588 19.2471 30.069 19.2585 30.0793 19.2677C30.0895 19.278 30.0997 19.2894 30.11 19.2986C30.1202 19.3089 30.1304 19.3203 30.1407 19.3295C30.1509 19.3398 30.1611 19.3512 30.1714 19.3603C30.1816 19.3706 30.1918 19.3821 30.2021 19.3912C30.2123 19.4015 30.2225 19.413 30.2328 19.4221C30.243 19.4324 30.2532 19.4439 30.2635 19.453C30.2737 19.4633 30.2839 19.4748 30.2942 19.4839C30.3044 19.4942 30.3146 19.5056 30.3249 19.5148C30.3351 19.5251 30.3453 19.5365 30.3556 19.5457C30.6387 19.8283 31.0617 19.9747 31.6166 19.9747H34.2183C35.3372 19.9747 35.9091 19.3992 35.9091 18.2735V17.6214C35.9194 17.6317 35.9296 17.642 35.9398 17.6523C35.9501 17.6626 35.9603 17.6729 35.9705 17.6832C35.9808 17.6935 35.991 17.7038 36.0012 17.7141C36.0115 17.7243 36.0217 17.7346 36.0319 17.7449C36.0422 17.7552 36.0524 17.7655 36.0626 17.7758C36.0729 17.7861 36.0831 17.7964 36.0933 17.8067C36.1036 17.817 36.1138 17.8273 36.124 17.8376C36.1343 17.8479 36.1445 17.8582 36.1547 17.8685C36.165 17.8788 36.1752 17.8891 36.1854 17.8994C36.1957 17.9097 36.2059 17.92 36.2161 17.9303C36.2264 17.9406 36.2366 17.9509 36.2468 17.9612C36.2571 17.9715 36.2673 17.9818 36.2775 17.9921C36.2878 18.0024 36.298 18.0126 36.3082 18.0229C36.3185 18.0332 36.3287 18.0435 36.3389 18.0538C36.3492 18.0641 36.3594 18.0744 36.3696 18.0847C36.3799 18.095 36.3901 18.1053 36.4004 18.1156C36.4106 18.1259 36.4208 18.1362 36.4311 18.1465C36.4413 18.1568 36.4515 18.1671 36.4618 18.1774C36.472 18.1877 36.4822 18.198 36.4925 18.2083C36.5027 18.2186 36.5129 18.2289 36.5232 18.2392C36.5334 18.2495 36.5436 18.2598 36.5539 18.2701C36.5641 18.2804 36.5743 18.2907 36.5846 18.301C36.5948 18.3112 36.605 18.3215 36.6153 18.3318C36.6255 18.3421 36.6357 18.3524 36.646 18.3627C36.6562 18.373 36.6664 18.3833 36.6767 18.3936C36.6869 18.4039 36.6971 18.4142 36.7074 18.4245C36.7176 18.4348 36.7278 18.4451 36.7381 18.4554C36.7483 18.4657 36.7585 18.476 36.7688 18.4863C36.779 18.4966 36.7892 18.5069 36.7995 18.5172C36.8097 18.5275 36.8199 18.5378 36.8302 18.5481C36.8404 18.5584 36.8506 18.5687 36.8609 18.579C36.8711 18.5893 36.8813 18.5996 36.8916 18.6098C36.9018 18.6201 36.912 18.6304 36.9223 18.6407C36.9325 18.651 36.9427 18.6613 36.953 18.6716C36.9632 18.6819 36.9734 18.6922 36.9837 18.7025C36.9939 18.7128 37.0041 18.7231 37.0144 18.7334C37.0246 18.7437 37.0348 18.754 37.0451 18.7643C37.0553 18.7746 37.0655 18.7849 37.0758 18.7952C37.086 18.8055 37.0962 18.8158 37.1065 18.8261C37.1167 18.8364 37.1269 18.8467 37.1372 18.857C37.1474 18.8673 37.1577 18.8776 37.1679 18.8879C37.1781 18.8981 37.1884 18.9084 37.1986 18.9187C37.2088 18.929 37.2191 18.9393 37.2293 18.9496C37.2395 18.9599 37.2498 18.9702 37.26 18.9805C37.2702 18.9908 37.2805 19.0011 37.2907 19.0114C37.3009 19.0217 37.3112 19.032 37.3214 19.0423C37.3316 19.0526 37.3419 19.0629 37.3521 19.0732C37.3623 19.0835 37.3726 19.0938 37.3828 19.1041C37.393 19.1144 37.4033 19.1247 37.4135 19.135C37.4237 19.1453 37.434 19.1556 37.4442 19.1659C37.4544 19.1762 37.4647 19.1865 37.4749 19.1968C37.4851 19.207 37.4954 19.2173 37.5056 19.2276C37.5158 19.2379 37.5261 19.2482 37.5363 19.2585C37.5465 19.2688 37.5568 19.2791 37.567 19.2894C37.5772 19.2997 37.5875 19.31 37.5977 19.3203C37.6079 19.3306 37.6182 19.3409 37.6284 19.3512C37.6386 19.3615 37.6489 19.3718 37.6591 19.3821C37.6693 19.3924 37.6796 19.4027 37.6898 19.413C37.7 19.4233 37.7103 19.4336 37.7205 19.4439C37.7307 19.4542 37.741 19.4645 37.7512 19.4748C37.7614 19.4851 37.7717 19.4953 37.7819 19.5056C38.0651 19.8008 38.4915 19.9507 39.0611 19.9507H41.6628C42.7817 19.9507 43.3537 19.3752 43.3537 18.2495V12.2546C43.3537 11.8473 43.4731 11.4766 43.6743 11.1735V15.0896C43.6743 15.6628 43.8233 16.0929 44.1166 16.3766C44.1269 16.3869 44.1371 16.3972 44.1473 16.4075C44.1576 16.4178 44.1678 16.4281 44.178 16.4384C44.1883 16.4487 44.1985 16.459 44.2087 16.4693C44.219 16.4796 44.2292 16.4899 44.2395 16.5002C44.2497 16.5105 44.2599 16.5208 44.2702 16.5311C44.2804 16.5414 44.2906 16.5517 44.3009 16.562C44.3111 16.5723 44.3213 16.5826 44.3316 16.5929C44.3418 16.6032 44.352 16.6135 44.3623 16.6238C44.3725 16.6341 44.3827 16.6444 44.393 16.6547C44.4032 16.6649 44.4134 16.6752 44.4237 16.6855C44.4339 16.6958 44.4441 16.7061 44.4544 16.7164C44.4646 16.7267 44.4748 16.737 44.4851 16.7473C44.4953 16.7576 44.5055 16.7679 44.5158 16.7782C44.526 16.7885 44.5362 16.7988 44.5465 16.8091C44.5567 16.8194 44.5669 16.8297 44.5772 16.84C44.5874 16.8503 44.5976 16.8606 44.6079 16.8709C44.6181 16.8812 44.6283 16.8915 44.6386 16.9018C44.6488 16.9121 44.659 16.9224 44.6693 16.9327C44.6795 16.943 44.6897 16.9533 44.7 16.9635C44.7102 16.9738 44.7204 16.9841 44.7307 16.9944C44.7409 17.0047 44.7511 17.015 44.7614 17.0253C44.7716 17.0356 44.7818 17.0459 44.7921 17.0562C44.8023 17.0665 44.8125 17.0768 44.8228 17.0871C44.833 17.0974 44.8432 17.1077 44.8535 17.118C44.8637 17.1283 44.8739 17.1386 44.8842 17.1489C44.8944 17.1592 44.9046 17.1695 44.9149 17.1798C44.9251 17.1901 44.9353 17.2004 44.9456 17.2107C44.9558 17.221 44.966 17.2313 44.9763 17.2416C44.9865 17.2519 44.9968 17.2621 45.007 17.2724C45.0172 17.2827 45.0275 17.293 45.0377 17.3033C45.0479 17.3136 45.0582 17.3239 45.0684 17.3342C45.0786 17.3445 45.0889 17.3548 45.0991 17.3651C45.1093 17.3754 45.1196 17.3857 45.1298 17.396C45.14 17.4063 45.1503 17.4166 45.1605 17.4269C45.1707 17.4372 45.181 17.4475 45.1912 17.4578C45.2014 17.4681 45.2117 17.4784 45.2219 17.4887C45.2321 17.499 45.2424 17.5093 45.2526 17.5196C45.2628 17.5299 45.2731 17.5402 45.2833 17.5504C45.2935 17.5607 45.3038 17.571 45.314 17.5813C45.3242 17.5916 45.3345 17.6019 45.3447 17.6122C45.3549 17.6225 45.3652 17.6328 45.3754 17.6431C45.3856 17.6534 45.3959 17.6637 45.4061 17.674C45.4163 17.6843 45.4266 17.6946 45.4368 17.7049C45.447 17.7152 45.4573 17.7255 45.4675 17.7358C45.4777 17.7461 45.488 17.7564 45.4982 17.7667C45.5084 17.777 45.5187 17.7873 45.5289 17.7976C45.5391 17.8079 45.5494 17.8182 45.5596 17.8285C45.5698 17.8388 45.5801 17.849 45.5903 17.8593C45.6005 17.8696 45.6108 17.8799 45.621 17.8902C45.6312 17.9005 45.6415 17.9108 45.6517 17.9211C45.6619 17.9314 45.6722 17.9417 45.6824 17.952C45.6927 17.9623 45.7029 17.9726 45.7131 17.9829C45.7234 17.9932 45.7336 18.0035 45.7438 18.0138C45.7541 18.0241 45.7643 18.0344 45.7745 18.0447C45.7848 18.055 45.795 18.0653 45.8052 18.0756C45.8155 18.0859 45.8257 18.0962 45.8359 18.1065C45.8462 18.1168 45.8564 18.1271 45.8666 18.1374C45.8769 18.1476 45.8871 18.1579 45.8973 18.1682C45.9076 18.1785 45.9178 18.1888 45.928 18.1991C45.9383 18.2094 45.9485 18.2197 45.9587 18.23C45.969 18.2403 45.9792 18.2506 45.9894 18.2609C45.9997 18.2712 46.0099 18.2815 46.0201 18.2918C46.0304 18.3021 46.0406 18.3124 46.0508 18.3227C46.0611 18.333 46.0713 18.3433 46.0815 18.3536C46.0918 18.3639 46.102 18.3742 46.1122 18.3845C46.1225 18.3948 46.1327 18.4051 46.1429 18.4154C46.1532 18.4257 46.1634 18.436 46.1736 18.4462C46.1839 18.4565 46.1941 18.4668 46.2043 18.4771C46.2146 18.4874 46.2248 18.4977 46.235 18.508C46.2453 18.5183 46.2555 18.5286 46.2657 18.5389C46.276 18.5492 46.2862 18.5595 46.2964 18.5698C46.3067 18.5801 46.3169 18.5904 46.3271 18.6007C46.3374 18.611 46.3476 18.6213 46.3579 18.6316C46.3681 18.6419 46.3783 18.6522 46.3886 18.6625C46.3988 18.6728 46.409 18.6831 46.4193 18.6934C46.4295 18.7037 46.4397 18.714 46.45 18.7243C46.4602 18.7345 46.4704 18.7448 46.4807 18.7551C46.4909 18.7654 46.5011 18.7757 46.5114 18.786C46.5216 18.7963 46.5318 18.8066 46.5421 18.8169C46.5523 18.8272 46.5625 18.8375 46.5728 18.8478C46.583 18.8581 46.5932 18.8684 46.6035 18.8787C46.6137 18.889 46.6239 18.8993 46.6342 18.9096C46.6444 18.9199 46.6546 18.9302 46.6649 18.9405C46.6751 18.9508 46.6853 18.9611 46.6956 18.9714C46.7058 18.9817 46.716 18.992 46.7263 19.0023C46.7365 19.0126 46.7467 19.0229 46.757 19.0331C46.7672 19.0434 46.7774 19.0537 46.7877 19.064C46.7979 19.0743 46.8081 19.0846 46.8184 19.0949C46.8286 19.1052 46.8388 19.1155 46.8491 19.1258C46.8593 19.1361 46.8695 19.1464 46.8798 19.1567C46.89 19.167 46.9002 19.1773 46.9105 19.1876C46.9207 19.1979 46.9309 19.2082 46.9412 19.2185C46.9514 19.2288 46.9616 19.2391 46.9719 19.2494C46.9821 19.2597 46.9923 19.27 47.0026 19.2803C47.0128 19.2906 47.023 19.3009 47.0333 19.3112C47.0435 19.3215 47.0537 19.3317 47.064 19.342C47.0742 19.3523 47.0844 19.3626 47.0947 19.3729C47.1049 19.3832 47.1152 19.3935 47.1254 19.4038C47.1356 19.4141 47.1459 19.4244 47.1561 19.4347C47.1663 19.445 47.1766 19.4553 47.1868 19.4656C47.4699 19.7608 47.8975 19.9106 48.466 19.9106H51.0415C52.1604 19.9106 52.7324 19.3352 52.7324 18.2094V15.0564C52.8063 15.1353 52.8813 15.2131 52.9587 15.2886C52.9689 15.2989 52.9791 15.3092 52.9894 15.3195C52.9996 15.3298 53.0098 15.3401 53.0201 15.3504C53.0303 15.3607 53.0405 15.371 53.0508 15.3813C53.061 15.3916 53.0712 15.4019 53.0815 15.4122C53.0917 15.4225 53.1019 15.4328 53.1122 15.4431C53.1224 15.4534 53.1326 15.4637 53.1429 15.474C53.1531 15.4843 53.1633 15.4946 53.1736 15.5049C53.1838 15.5152 53.194 15.5255 53.2043 15.5358C53.2145 15.5461 53.2247 15.5564 53.235 15.5667C53.2452 15.5769 53.2554 15.5872 53.2657 15.5975C53.2759 15.6078 53.2861 15.6181 53.2964 15.6284C53.3066 15.6387 53.3168 15.649 53.3271 15.6593C53.3373 15.6696 53.3475 15.6799 53.3578 15.6902C53.368 15.7005 53.3782 15.7108 53.3885 15.7211C53.3987 15.7314 53.4089 15.7417 53.4192 15.752C53.4294 15.7623 53.4396 15.7726 53.4499 15.7829C53.4601 15.7932 53.4703 15.8035 53.4806 15.8138C53.4908 15.8241 53.501 15.8344 53.5113 15.8447C53.5215 15.855 53.5318 15.8653 53.542 15.8755C53.5522 15.8858 53.5625 15.8961 53.5727 15.9064C53.5829 15.9167 53.5932 15.927 53.6034 15.9373C53.6136 15.9476 53.6239 15.9579 53.6341 15.9682C53.6443 15.9785 53.6546 15.9888 53.6648 15.9991C53.675 16.0094 53.6853 16.0197 53.6955 16.03C53.7057 16.0403 53.716 16.0506 53.7262 16.0609C53.7364 16.0712 53.7467 16.0815 53.7569 16.0918C53.7671 16.1021 53.7774 16.1124 53.7876 16.1227C53.7978 16.133 53.8081 16.1433 53.8183 16.1536C53.8285 16.1639 53.8388 16.1741 53.849 16.1844C53.8592 16.1947 53.8695 16.205 53.8797 16.2153C53.8899 16.2256 53.9002 16.2359 53.9104 16.2462C53.9206 16.2565 53.9309 16.2668 53.9411 16.2771C53.9513 16.2874 53.9616 16.2977 53.9718 16.308C53.982 16.3183 53.9923 16.3286 54.0025 16.3389C54.0127 16.3492 54.023 16.3595 54.0332 16.3698C54.0434 16.3801 54.0537 16.3904 54.0639 16.4007C54.0741 16.411 54.0844 16.4213 54.0946 16.4316C54.1048 16.4419 54.1151 16.4522 54.1253 16.4625C54.1355 16.4727 54.1458 16.483 54.156 16.4933C54.1662 16.5036 54.1765 16.5139 54.1867 16.5242C54.1969 16.5345 54.2072 16.5448 54.2174 16.5551C54.2277 16.5654 54.2379 16.5757 54.2481 16.586C54.2584 16.5963 54.2686 16.6066 54.2788 16.6169C54.2891 16.6272 54.2993 16.6375 54.3095 16.6478C54.3198 16.6581 54.33 16.6684 54.3402 16.6787C54.3505 16.689 54.3607 16.6993 54.3709 16.7096C54.3812 16.7199 54.3914 16.7302 54.4016 16.7405C54.4119 16.7508 54.4221 16.761 54.4323 16.7713C54.4426 16.7816 54.4528 16.7919 54.463 16.8022C54.4733 16.8125 54.4835 16.8228 54.4937 16.8331C54.504 16.8434 54.5142 16.8537 54.5244 16.864C54.5347 16.8743 54.5449 16.8846 54.5551 16.8949C54.5654 16.9052 54.5756 16.9155 54.5858 16.9258C54.5961 16.9361 54.6063 16.9464 54.6165 16.9567C54.6268 16.967 54.637 16.9773 54.6472 16.9876C54.6575 16.9979 54.6677 17.0082 54.6779 17.0185C54.6882 17.0288 54.6984 17.0391 54.7086 17.0494C54.7189 17.0597 54.7291 17.0699 54.7393 17.0802C54.7496 17.0905 54.7598 17.1008 54.77 17.1111C54.7803 17.1214 54.7905 17.1317 54.8007 17.142C54.811 17.1523 54.8212 17.1626 54.8314 17.1729C54.8417 17.1832 54.8519 17.1935 54.8621 17.2038C54.8724 17.2141 54.8826 17.2244 54.8929 17.2347C54.9031 17.245 54.9133 17.2553 54.9236 17.2656C54.9338 17.2759 54.944 17.2862 54.9543 17.2965C54.9645 17.3068 54.9747 17.3171 54.985 17.3274C54.9952 17.3377 55.0054 17.348 55.0157 17.3582C55.0259 17.3685 55.0361 17.3788 55.0464 17.3891C55.0566 17.3994 55.0668 17.4097 55.0771 17.42C55.0873 17.4303 55.0975 17.4406 55.1078 17.4509C55.118 17.4612 55.1282 17.4715 55.1385 17.4818C55.1487 17.4921 55.1589 17.5024 55.1692 17.5127C55.1794 17.523 55.1896 17.5333 55.1999 17.5436C55.2101 17.5539 55.2203 17.5642 55.2306 17.5745C55.2408 17.5848 55.251 17.5951 55.2613 17.6054C55.2715 17.6157 55.2817 17.626 55.292 17.6363C55.3022 17.6465 55.3124 17.6568 55.3227 17.6671C55.3329 17.6774 55.3431 17.6877 55.3534 17.698C55.3636 17.7083 55.3738 17.7186 55.3841 17.7289C55.3943 17.7392 55.4045 17.7495 55.4148 17.7598C55.425 17.7701 55.4352 17.7804 55.4455 17.7907C55.4557 17.801 55.4659 17.8113 55.4762 17.8216C55.4864 17.8319 55.4966 17.8422 55.5069 17.8525C55.5171 17.8628 55.5273 17.8731 55.5376 17.8834C55.5478 17.8937 55.558 17.904 55.5683 17.9143C55.5785 17.9246 55.5887 17.9349 55.599 17.9451C55.6092 17.9554 55.6194 17.9657 55.6297 17.976C55.6399 17.9863 55.6502 17.9966 55.6604 18.0069C55.6706 18.0172 55.6809 18.0275 55.6911 18.0378C55.7013 18.0481 55.7116 18.0584 55.7218 18.0687C55.732 18.079 55.7423 18.0893 55.7525 18.0996C55.7627 18.1099 55.773 18.1202 55.7832 18.1305C55.7934 18.1408 55.8037 18.1511 55.8139 18.1614C55.8241 18.1717 55.8344 18.182 55.8446 18.1923C55.8548 18.2026 55.8651 18.2129 55.8753 18.2232C55.8855 18.2335 55.8958 18.2438 55.906 18.254C55.9162 18.2643 55.9265 18.2746 55.9367 18.2849C55.9469 18.2952 55.9572 18.3055 55.9674 18.3158C55.9776 18.3261 55.9879 18.3364 55.9981 18.3467C56.0083 18.357 56.0186 18.3673 56.0288 18.3776C57.3399 19.667 59.1592 20.3957 61.3572 20.3957C65.9101 20.3957 69.0326 17.1237 69.0326 12.1757C69.0326 9.56149 68.1513 7.4118 66.6424 5.97143L66.7197 6.04694Z" fill="var(--fill-0, black)"/>
<path id="Vector_3" d="M12.0339 16.2797C11.1925 16.2797 10.8491 15.9342 10.8491 15.0876V9.0927C10.8491 7.76444 9.87233 6.7245 8.62494 6.7245C7.37755 6.7245 6.37464 7.76444 6.37464 9.0927V15.0876C6.37464 15.9342 6.03124 16.2797 5.18979 16.2797H2.58813C1.74668 16.2797 1.40328 15.9342 1.40328 15.0876V3.12414C1.40328 2.27754 1.74668 1.93203 2.58813 1.93203H5.18979C6.03465 1.93203 6.20408 2.33017 6.25979 2.46059L6.54065 3.12071L7.06713 2.63677C7.95292 1.8222 9.02861 1.4092 10.2635 1.4092C12.0487 1.4092 13.436 2.10707 14.3877 3.48452C15.3076 4.81506 15.7932 6.76339 15.7932 9.12015V15.0887C15.7932 15.9353 15.4498 16.2808 14.6083 16.2808H12.0328L12.0339 16.2797Z" fill="var(--fill-0, #F3E008)"/>
<path id="Vector_4" d="M23.3771 16.8034C21.5953 16.8034 20.2069 16.1033 19.2529 14.7212C18.333 13.3907 17.8475 11.4538 17.8475 9.11879C17.8475 6.78377 18.333 4.8137 19.2529 3.48316C20.2047 2.10571 21.5919 1.40784 23.3771 1.40784C24.6132 1.40784 25.6889 1.82084 26.5735 2.63541L27.1 3.11935L27.3808 2.45923C27.4366 2.3288 27.606 1.93067 28.4508 1.93067H31.0525C31.894 1.93067 32.2374 2.27618 32.2374 3.12278V15.0862C32.2374 15.9328 31.894 16.2783 31.0525 16.2783H28.4508C27.606 16.2783 27.4366 15.8802 27.3808 15.7497L27.1 15.0896L26.5735 15.5736C25.6877 16.3881 24.612 16.8011 23.3771 16.8011V16.8034ZM25.0157 6.72542C23.7683 6.72542 22.7915 7.76537 22.7915 9.09362C22.7915 10.4219 23.8104 11.4355 25.0157 11.4355C26.221 11.4355 27.266 10.3635 27.266 9.09362C27.266 7.82371 26.2779 6.72542 25.0157 6.72542Z" fill="var(--fill-0, #F3E008)"/>
<path id="Vector_5" d="M45.3613 16.2797C44.5199 16.2797 44.1765 15.9342 44.1765 15.0876V9.0927C44.1765 7.76444 43.1997 6.7245 41.9523 6.7245C40.7049 6.7245 39.702 7.76444 39.702 9.0927V15.0876C39.702 15.9342 39.3586 16.2797 38.5172 16.2797H35.9155C35.0741 16.2797 34.7307 15.9342 34.7307 15.0876V3.12414C34.7307 2.27754 35.0741 1.93203 35.9155 1.93203H38.5172C39.362 1.93203 39.5314 2.33017 39.5872 2.46059L39.868 3.12071L40.3945 2.63677C41.2803 1.8222 42.356 1.4092 43.5909 1.4092C45.3761 1.4092 46.7633 2.10707 47.7151 3.48452C48.635 4.81506 49.1205 6.76339 49.1205 9.12015V15.0887C49.1205 15.9353 48.7771 16.2808 47.9357 16.2808H45.3602L45.3613 16.2797Z" fill="var(--fill-0, #F3E008)"/>
<path id="Vector_6" d="M58.2949 16.8036C56.1628 16.8036 54.3685 16.0806 53.1074 14.7123C51.8453 13.3417 51.1767 11.3991 51.1767 9.09384C51.1767 6.78856 51.8441 4.8654 53.1063 3.49825C54.3685 2.13224 56.1617 1.4092 58.2937 1.4092C60.4258 1.4092 62.1826 2.13224 63.4709 3.50168C64.774 4.88485 65.4619 6.81831 65.4619 9.09384C65.4619 11.3694 64.7729 13.3223 63.4698 14.7089C62.1814 16.0795 60.3916 16.8036 58.2926 16.8036H58.2949ZM58.2949 6.41102C57.0111 6.41102 56.1492 7.48873 56.1492 9.09384C56.1492 10.699 57.0111 11.8018 58.2949 11.8018C59.5786 11.8018 60.4928 10.739 60.4928 9.09384C60.4928 7.44868 59.6298 6.41102 58.2949 6.41102Z" fill="var(--fill-0, #F3E008)"/>
</g>
</svg>
