<svg preserveAspectRatio="none" width="100%" height="100%" overflow="visible" style="display: block;" viewBox="0 0 40 40" fill="none" xmlns="http://www.w3.org/2000/svg">
<g id="Group 1686557249">
<path id="4" d="M0 20C0 12.5231 0 8.78461 1.60769 6C2.66091 4.17577 4.17577 2.66091 6 1.60769C8.78461 0 12.5231 0 20 0C27.4769 0 31.2154 0 34 1.60769C35.8242 2.66091 37.3391 4.17577 38.3923 6C40 8.78461 40 12.5231 40 20C40 27.4769 40 31.2154 38.3923 34C37.3391 35.8242 35.8242 37.3391 34 38.3923C31.2154 40 27.4769 40 20 40C12.5231 40 8.78461 40 6 38.3923C4.17577 37.3391 2.66091 35.8242 1.60769 34C0 31.2154 0 27.4769 0 20Z" fill="var(--fill-0, #F9F9FB)"/>
<path id="LinkedIn" d="M15.8525 17.1914V27.9609H12.2158V17.1914H15.8525ZM24.7783 16.9385C27.1713 16.9386 28.9648 18.4782 28.9648 21.7861V27.9609H25.3291V22.1992C25.3291 20.7521 24.8031 19.7649 23.4873 19.7646C22.4826 19.7646 21.8841 20.4303 21.6211 21.0742C21.5253 21.3043 21.501 21.6243 21.501 21.9463V27.9609H17.8633C17.8636 27.8982 17.9121 18.1992 17.8633 17.1914H21.5V18.7178C21.4926 18.7292 21.4835 18.7419 21.4766 18.7529H21.5V18.7178C21.9832 17.985 22.8468 16.9385 24.7783 16.9385ZM14.0586 12C15.3029 12.0001 16.0679 12.8037 16.0918 13.8604C16.0918 14.8943 15.3026 15.7217 14.0342 15.7217H14.0098C12.7903 15.7216 12 14.894 12 13.8604C12 12.8036 12.8143 12 14.0586 12Z" fill="var(--fill-0, #666D85)"/>
</g>
</svg>
