<svg preserveAspectRatio="none" width="100%" height="100%" overflow="visible" style="display: block;" viewBox="0 0 40 40" fill="none" xmlns="http://www.w3.org/2000/svg">
<g id="Group 1686557250">
<path id="3" d="M0 20C0 12.5231 0 8.78461 1.60769 6C2.66091 4.17577 4.17577 2.66091 6 1.60769C8.78461 0 12.5231 0 20 0C27.4769 0 31.2154 0 34 1.60769C35.8242 2.66091 37.3391 4.17577 38.3923 6C40 8.78461 40 12.5231 40 20C40 27.4769 40 31.2154 38.3923 34C37.3391 35.8242 35.8242 37.3391 34 38.3923C31.2154 40 27.4769 40 20 40C12.5231 40 8.78461 40 6 38.3923C4.17577 37.3391 2.66091 35.8242 1.60769 34C0 31.2154 0 27.4769 0 20Z" fill="var(--fill-0, #F9F9FB)"/>
<g id="instagram">
<path id="Shape" d="M23.75 10C27.2013 10 30 12.7987 30 16.25V23.75C30 27.2013 27.2013 30 23.75 30H16.25C12.7987 30 10 27.2013 10 23.75V16.25C10 12.7987 12.7987 10 16.25 10H23.75ZM16.25 11.875C13.8375 11.875 11.875 13.8375 11.875 16.25V23.75C11.875 26.1625 13.8375 28.125 16.25 28.125H23.75C26.1625 28.125 28.125 26.1625 28.125 23.75V16.25C28.125 13.8375 26.1625 11.875 23.75 11.875H16.25Z" fill="var(--fill-0, #666D85)"/>
<path id="Shape_2" d="M20 15C22.7613 15 25 17.2387 25 20C25 22.7613 22.7613 25 20 25C17.2387 25 15 22.7613 15 20C15 17.2387 17.2387 15 20 15ZM20 16.875C18.2775 16.875 16.875 18.2763 16.875 20C16.875 21.7225 18.2775 23.125 20 23.125C21.7225 23.125 23.125 21.7225 23.125 20C23.125 18.2763 21.7225 16.875 20 16.875Z" fill="var(--fill-0, #666D85)"/>
<path id="Oval" d="M25.375 15.2912C25.743 15.2912 26.0412 14.993 26.0412 14.625C26.0412 14.257 25.743 13.9587 25.375 13.9587C25.007 13.9587 24.7087 14.257 24.7087 14.625C24.7087 14.993 25.007 15.2912 25.375 15.2912Z" fill="var(--fill-0, #666D85)"/>
</g>
</g>
</svg>
