<svg preserveAspectRatio="none" width="100%" height="100%" overflow="visible" style="display: block;" viewBox="0 0 16.3405 15" fill="none" xmlns="http://www.w3.org/2000/svg">
<g id="Group 1686557793">
<g id="Vector">
<path d="M16.2996 14.2181L13.2595 6.61793C13.173 6.40133 12.9631 6.25977 12.7303 6.25977H11.9703C11.7376 6.25977 11.5276 6.40133 11.4411 6.61793L8.40106 14.2181C8.28421 14.5107 8.42672 14.8423 8.71837 14.9591C9.01098 15.076 9.34254 14.9335 9.45939 14.6418L10.228 12.7199H14.4727L15.2412 14.6418C15.3305 14.8651 15.5443 15 15.7704 15C15.8407 15 15.9129 14.9867 15.9823 14.9591C16.2749 14.8423 16.4164 14.5107 16.2996 14.2181ZM10.684 11.5799L12.3503 7.415L14.0167 11.5799H10.684Z" fill="var(--fill-0, #666D85)"/>
<path d="M9.31119 10.4085C8.25857 9.5981 7.37409 8.70603 6.60172 7.7294C7.5527 6.39842 8.39347 4.87743 9.30169 2.83962H11.2103C11.5248 2.83962 11.7803 2.58407 11.7803 2.26961C11.7803 1.95515 11.5248 1.69959 11.2103 1.69959H6.46017V0.570015C6.46017 0.255557 6.20461 0 5.89015 0C5.5757 0 5.32014 0.255557 5.32014 0.570015V1.69959H0.570015C0.255557 1.69959 0 1.95515 0 2.26961C0 2.58407 0.255557 2.83962 0.570015 2.83962H8.05051C7.39689 4.26656 6.70527 5.5719 5.8911 6.76323C5.18524 5.7334 4.57247 4.61712 3.99675 3.40964H2.73702C3.41249 4.87458 4.18866 6.34142 5.18239 7.72655C4.24376 8.91503 3.13983 9.97716 1.768 10.9205C1.50864 11.0991 1.44309 11.4535 1.62074 11.7129C1.73095 11.8734 1.90955 11.9599 2.091 11.9599C2.20216 11.9599 2.31426 11.9276 2.41306 11.8592C3.7336 10.9519 4.88028 9.89736 5.8949 8.65568C6.72903 9.67505 7.7047 10.6374 8.87323 11.5048L9.31214 10.4085H9.31119Z" fill="var(--fill-0, #666D85)"/>
</g>
</g>
</svg>
