<svg preserveAspectRatio="none" width="100%" height="100%" overflow="visible" style="display: block;" viewBox="0 0 25.4723 7.53924" fill="none" xmlns="http://www.w3.org/2000/svg">
<g id="Group">
<path id="Vector" d="M4.47939 0.124342C7.05013 0.125774 8.41452 1.54454 8.42412 3.3873C8.43547 5.5659 6.59969 7.53824 3.96619 7.53677C1.33269 7.5353 0.0310559 6.11657 0.0215378 4.28918C0.0101905 2.11058 1.84589 0.123973 4.47939 0.12544L4.47939 0.124342ZM4.41041 2.11303C3.25944 2.11239 2.50677 3.10633 2.51233 4.17313C2.51682 5.03579 3.10326 5.54757 4.04938 5.54809C5.18496 5.54873 5.95302 4.55479 5.94746 3.48799C5.94297 2.62533 5.35653 2.11355 4.41041 2.11303Z" fill="var(--fill-0, black)"/>
<path id="Vector_2" d="M14.433 3.33949C14.4643 3.20773 14.5106 3.00348 14.5097 2.82776C14.5068 2.27206 14.0006 2.05212 13.4636 2.05182C12.7535 2.05141 12.2018 2.40253 11.8408 2.73838L10.7752 7.302L8.34379 7.30061L9.99613 0.235555L12.4275 0.236949L12.2104 1.10003C12.7922 0.602867 13.5469 0.0618737 14.6837 0.0625253C16.2154 0.0634031 17.1357 0.825002 17.1413 1.89248C17.142 2.02427 17.0962 2.33175 17.0649 2.4778L15.9379 7.30496L13.5065 7.30357L14.433 3.33949Z" fill="var(--fill-0, black)"/>
<path id="Vector_3" d="M21.9354 0.0024482C23.8579 0.00349349 25.4396 1.12991 25.4502 3.19014C25.4525 3.62896 25.3607 4.16974 25.2993 4.41764L19.9093 4.41471L19.9097 4.50247C19.9115 4.85352 20.4825 5.67222 21.7436 5.67291C22.3742 5.67325 23.1139 5.51239 23.5218 5.23506L24.2702 6.72634C23.532 7.19327 22.4932 7.41211 21.5633 7.41161C19.1369 7.41029 17.5077 6.23996 17.4971 4.20935C17.4854 1.94397 19.3351 0.00213117 21.9354 0.00354505L21.9354 0.0024482ZM23.306 2.85329C23.3036 2.40021 22.8909 1.74286 21.8344 1.74229C20.9199 1.74179 20.2621 2.41391 20.1383 2.95468L23.29 2.9564C23.3052 2.92679 23.305 2.8829 23.3048 2.85438L23.306 2.85329Z" fill="var(--fill-0, black)"/>
</g>
</svg>
