<svg preserveAspectRatio="none" width="100%" height="100%" overflow="visible" style="display: block;" viewBox="0 0 15.1563 17.2974" fill="none" xmlns="http://www.w3.org/2000/svg">
<g id="Group 1686557793">
<g id="vector">
<path d="M7.57807 4.79562C7.79759 4.79562 8.00232 4.9065 8.12222 5.09037L8.92645 6.32361L10.3478 6.70717C10.5597 6.76437 10.7284 6.92477 10.7962 7.13354C10.8641 7.34234 10.8219 7.57132 10.6841 7.74218L9.75932 8.8882L9.83449 10.3584C9.84568 10.5777 9.74527 10.7878 9.56765 10.9169C9.39002 11.046 9.15919 11.0766 8.95404 10.9983L7.57807 10.4729L6.20221 10.9983C5.99707 11.0766 5.76623 11.046 5.58861 10.9169C5.41098 10.7878 5.31057 10.5777 5.32176 10.3584L5.39683 8.8882L4.47219 7.74218C4.33433 7.57132 4.29217 7.34234 4.36001 7.13354C4.42786 6.92477 4.59655 6.76437 4.80849 6.70717L6.2297 6.32361L7.03403 5.09037C7.15393 4.90651 7.35858 4.79563 7.57807 4.79562Z" fill="var(--fill-0, #666D85)"/>
<path d="M7.57812 17.2974C7.13859 17.2974 6.69906 17.1772 6.31583 16.9379L1.9335 14.199C0.72317 13.4423 0 12.1388 0 10.7109V2.73003C0 2.40201 0.243583 2.12595 0.569442 2.08589C2.27019 1.87371 3.99908 1.32267 5.70741 0.449019C6.87877 -0.149653 8.27748 -0.149653 9.44884 0.449019C11.1572 1.32267 12.8861 1.87371 14.5868 2.08589C14.9116 2.12703 15.1562 2.40309 15.1562 2.73003V10.7109C15.1562 12.1388 14.4331 13.4423 13.2227 14.199L8.84042 16.9379C8.45719 17.1772 8.01766 17.2974 7.57812 17.2974ZM1.29911 3.2919V10.7109C1.29911 11.6874 1.79385 12.5805 2.62203 13.098L7.00435 15.8369C7.35295 16.0545 7.8033 16.0545 8.1519 15.8369L12.5342 13.098C13.3624 12.5805 13.8571 11.6885 13.8571 10.7109V3.2919C12.1921 3.01692 10.5119 2.45073 8.85775 1.60522C8.05663 1.19601 7.1007 1.19601 6.29959 1.60522C4.64431 2.45181 2.96521 3.018 1.30019 3.2919H1.29911Z" fill="var(--fill-0, #666D85)"/>
</g>
</g>
</svg>
