<svg preserveAspectRatio="none" width="100%" height="100%" overflow="visible" style="display: block;" viewBox="0 0 12.375 11.6954" fill="none" xmlns="http://www.w3.org/2000/svg">
<g id="LIne RAW">
<path id="Vector" d="M11.8125 11.6944H5.81252C5.50221 11.6944 5.25002 11.4422 5.25002 11.1319C5.25002 10.8215 5.50221 10.5694 5.81252 10.5694H11.8125C12.1228 10.5694 12.375 10.8215 12.375 11.1319C12.375 11.4422 12.1228 11.6944 11.8125 11.6944Z" fill="var(--fill-0, #343D54)"/>
<g id="Group">
<path id="Vector_2" d="M10.2525 4.11607C10.4072 4.27076 10.6603 4.26139 10.8019 4.09545C10.9275 3.9492 11.0513 3.80201 11.175 3.65482C11.9166 2.76701 11.8575 1.47889 11.0372 0.657635C10.2169 -0.163615 8.92783 -0.222678 8.04001 0.519822C7.89189 0.643572 7.74564 0.767322 7.59939 0.892947C7.43345 1.03451 7.42501 1.28857 7.57876 1.44232L10.2516 4.11514L10.2525 4.11607Z" fill="var(--fill-0, #343D54)"/>
<path id="Vector_3" d="M6.18281 2.14506C3.99187 4.15037 1.95844 6.33475 0.12 8.6635C0.0421874 8.76287 0 8.88475 0 9.01131V11.1329C0 11.4432 0.252188 11.6954 0.5625 11.6954H2.68406C2.80969 11.6954 2.9325 11.6532 3.03187 11.5754C5.36063 9.73694 7.54594 7.70444 9.55031 5.51256C9.68531 5.36444 9.67969 5.13568 9.53813 4.99412L6.70125 2.15725C6.55969 2.01568 6.33094 2.00912 6.18281 2.14506Z" fill="var(--fill-0, #343D54)"/>
</g>
</g>
</svg>
