<svg preserveAspectRatio="none" width="100%" height="100%" overflow="visible" style="display: block;" viewBox="0 0 346 709" fill="none" xmlns="http://www.w3.org/2000/svg">
<path id="lines" opacity="0.2" d="M335.085 423.226C339.311 412.183 342.881 400.907 345.932 389.309V400.673C343.695 408.181 341.232 415.543 338.475 422.788C306.634 506.662 241.981 572.57 189.237 620.598C185.711 623.811 182.277 626.937 178.909 629.976C143.498 662.14 116.719 686.476 101.307 708.942H98.9572C114.098 686.856 140.741 662.549 176.107 630.326C179.022 627.668 181.983 624.98 185.011 622.204C237.913 573.913 302.77 507.656 335.062 423.226H335.085ZM332.283 199.621C337.209 241.163 338.294 278.149 335.582 312.68C332.531 351.476 324.803 386.212 311.967 418.815C279.019 502.572 214.569 568.889 162.119 617.297L159.136 620.043C118.618 657.437 89.5112 684.285 75.9749 708.942H78.3251C92.2682 683.817 121.42 656.969 161.803 619.838L166.3 615.69C218.614 567.545 282.838 501.579 315.38 418.348C327.899 386.3 335.401 352.207 338.294 314.082C340.87 280.077 339.718 243.617 334.724 202.63C326.746 136.956 309.73 67.9231 291.9 0.0876427H290.883C308.216 66.9006 324.577 134.824 332.283 199.621ZM306.205 0.0876427C321.278 55.3317 336.057 111.569 345.932 166.258V156.851C335.786 105.142 321.549 52.1474 307.176 0.0876427H306.182H306.205ZM173.576 619.751L167.588 625.243C129.691 659.979 101.827 685.57 87.3418 708.942H89.6694C104.471 685.161 132.448 659.569 170.3 624.951L177.757 618.115C230.298 570.028 294.725 504.091 326.905 420.539C335.899 397.226 342.158 372.774 345.91 346.51V320.305C342.881 356.939 335.56 389.951 323.515 421.006C290.906 505.114 226.23 571.401 173.554 619.751H173.576ZM345.932 195.005V182.092C336.147 122.524 319.899 60.6779 303.38 0.0584285H302.386C319.899 65.1185 336.893 131.464 345.932 195.005ZM337.368 202.046C342.384 243.325 343.559 280.077 340.961 314.403C338.023 352.966 330.452 387.468 317.775 419.896C284.985 503.828 220.445 570.116 167.859 618.524L163.362 622.672C124.177 658.722 95.6579 684.957 81.6245 708.942H83.9973C98.3923 684.489 126.956 658.284 166.074 622.409L172.062 616.917C224.49 568.801 288.827 502.864 321.165 419.458C333.526 387.614 340.893 353.697 343.672 315.806C346.158 282.005 344.893 245.779 339.831 205.025C331.582 138.592 314.001 68.6534 295.742 0.0876427H294.725C312.487 67.6894 329.39 136.489 337.368 202.075V202.046ZM342.452 204.441C343.966 216.623 345.096 228.368 345.932 239.79V216.127C345.593 213.205 345.277 210.313 344.915 207.363C336.396 140.17 318.249 69.3838 299.561 0.0292142H298.567C316.758 68.3905 334.226 138.066 342.452 204.412V204.441ZM179.316 620.948L171.859 627.784C135.25 661.264 107.974 686.213 93.1495 708.942H95.4997C110.64 685.804 138.007 660.855 174.616 627.463C177.531 624.805 180.491 622.117 183.519 619.341C236.173 571.284 300.691 505.377 332.712 421.649C338.136 407.48 342.497 392.902 345.932 377.769V362.928C342.068 383.612 336.577 403.215 329.323 422.087C296.872 506.341 232.105 572.628 179.316 620.948ZM236.625 633.218C229.348 639.704 222.366 645.868 215.609 651.828C191.022 673.534 170.119 691.968 154.458 708.912H156.673C172.559 691.705 193.711 673.096 218.592 651.214C225.755 644.933 233.145 638.418 240.873 631.553C275.177 601.053 314.272 563.25 345.955 517.705V513.148C313.413 561.439 272.42 601.287 236.648 633.189L236.625 633.218ZM190.773 623.402C187.248 626.616 183.813 629.742 180.446 632.78C146.3 663.806 120.29 687.44 104.901 708.912H107.206C122.843 687.089 149.012 663.397 183.248 632.4C187.067 628.953 190.977 625.418 194.977 621.766C247.834 573.767 312.577 507.889 344.26 423.84C344.848 422.292 345.367 420.685 345.932 419.107V409.788C344.35 414.667 342.678 419.487 340.87 424.249C308.758 508.853 243.789 575.082 190.773 623.373V623.402ZM248.082 635.672C239.924 642.917 232.105 649.753 224.535 656.385C201.96 676.163 182.48 693.224 167.249 708.942H169.418C184.853 692.961 204.626 675.725 227.518 655.742C235.473 648.819 243.676 641.632 252.286 634.036C282.59 607.247 316.6 574.79 345.91 536.344V532.254C315.583 573.212 279.787 607.568 248.06 635.702L248.082 635.672ZM242.342 634.445C234.614 641.311 227.224 647.825 220.061 654.106C196.468 674.849 176.311 692.582 160.831 708.912H163.023C178.706 692.319 199.157 674.41 223.044 653.493C230.591 646.861 238.41 640.025 246.568 632.809C278.838 604.209 315.357 569.122 345.91 527.229V522.935C314.408 567.457 276.059 604.471 242.32 634.474L242.342 634.445ZM213.688 628.31C208.264 633.218 202.976 637.922 197.869 642.508C169.283 668.1 146.707 688.316 130.798 707.101C130.278 707.714 129.781 708.328 129.284 708.912H131.544C132.154 708.182 132.741 707.452 133.374 706.721C149.487 687.79 172.13 667.574 200.784 642.012C206.298 637.075 212.016 631.991 217.914 626.674C260.941 588.024 311.673 537.688 345.932 475.199V469.18C311.38 535.205 258.364 588.053 213.688 628.31ZM230.885 631.991C224.06 638.097 217.484 643.911 211.134 649.549C185.508 672.248 163.927 691.384 148.086 708.942H150.323C166.39 691.092 188.197 671.839 214.095 648.994C220.852 643.034 227.834 636.87 235.111 630.384C271.471 597.957 313.278 557.291 345.932 507.918V503.04C312.555 555.333 268.782 598.161 230.885 632.02V631.991ZM219.428 629.537C213.53 634.825 207.812 639.938 202.276 644.875C174.571 669.619 151.588 690.128 135.544 708.912H137.736C153.893 689.981 176.537 669.824 205.214 644.349C211.157 639.061 217.304 633.598 223.654 627.901C264.376 591.413 311.967 544.495 345.932 486.68V481.1C311.493 542.216 261.754 591.5 219.428 629.508V629.537ZM225.168 630.764C218.795 636.461 212.648 641.924 206.705 647.212C180.039 670.905 157.78 690.741 141.803 708.912H144.04C160.221 690.449 182.729 670.496 209.643 646.657C215.993 641.019 222.569 635.205 229.371 629.128C267.878 594.714 312.51 551.009 345.932 497.577V492.376C311.899 548.906 265.212 594.86 225.168 630.764ZM296.917 180.982C301.346 224.657 301.798 263.512 298.318 299.767C294.386 340.521 285.64 376.951 271.517 411.073C237.416 493.603 173.712 560.037 122.007 608.708C75.1162 652.85 45.7612 681.626 38.462 708.942H40.6314C48.5408 681.071 77.5568 652.733 126.165 607.13C224.354 514.988 257.257 453.668 274.929 410.548C288.691 377.039 297.188 341.281 300.939 301.286C304.284 265.616 303.741 227.345 299.29 184.313C293.075 124.423 279.787 61.9926 265.008 0.0876427H263.946C278.228 60.8824 290.928 122.115 296.917 181.011V180.982ZM291.9 178.09C296.262 222.116 296.623 261.292 293.03 297.81C288.985 338.885 280.059 375.578 265.731 409.963C231.473 492.318 167.859 558.751 116.267 607.451C68.7661 652.266 39.5467 681.071 33.4226 708.912H35.6147C38.4846 697.139 45.2641 684.898 56.6309 670.759C71.3197 652.471 93.2625 631.436 120.448 605.874C218.434 513.644 251.404 452.441 269.189 409.408C283.132 375.666 291.81 339.645 295.697 299.3C299.154 263.366 298.702 224.803 294.295 181.391C288.33 122.408 275.539 60.9993 261.189 0H260.104C273.935 59.8307 286.16 120.041 291.9 178.031V178.09ZM301.956 183.845C306.453 227.199 306.996 265.733 303.628 301.724C299.832 342.186 291.222 378.324 277.302 412.213C243.382 494.918 179.542 561.351 127.725 609.964C99.2284 636.695 77.941 657.028 63.2974 675.141C53.1282 687.703 46.7103 698.629 43.524 708.971H45.8064C54.7553 681.655 83.9069 653.288 131.905 608.357C230.298 516.274 263.11 454.865 280.714 411.687C294.273 378.412 302.634 342.917 306.272 303.214C309.504 267.807 308.871 229.828 304.352 187.117C297.911 126.352 284.104 62.9274 268.895 0.116857H267.833C282.544 61.8465 295.764 124.073 301.956 183.874V183.845ZM306.996 186.62C311.56 229.624 312.193 267.894 308.939 303.623C305.278 343.764 296.826 379.639 283.087 413.323C249.325 496.204 185.395 562.608 133.465 611.191C86.5508 655.1 57.8512 682.941 48.699 708.971H51.0266C54.7553 698.833 61.3087 688.17 71.1389 676.222C87.048 656.794 111.612 633.89 137.623 609.613C236.218 517.618 268.963 456.122 286.477 412.826C299.855 379.785 308.058 344.553 311.56 305.113C314.679 269.969 313.956 232.253 309.368 189.863C302.679 128.25 288.352 63.8331 272.714 0.116857H271.675C286.816 62.7522 300.555 125.972 306.973 186.65L306.996 186.62ZM281.889 172.072C286.138 216.857 286.318 256.676 282.499 293.807C278.183 335.584 268.94 372.861 254.206 407.801C238.84 444.261 217.191 479.727 187.994 516.245C165.757 544.086 139.34 572.307 104.833 605.056C57.6026 649.87 27.4567 679.873 23.7054 708.971H25.7845C30.5301 679.085 60.0432 649.812 108.991 603.478C206.592 511.103 239.698 450.074 257.641 407.246C271.991 372.978 280.985 336.402 285.121 295.414C288.804 258.896 288.533 219.691 284.262 175.577C278.725 118.464 266.929 59.1296 253.483 0.116857H252.399C265.347 57.961 276.601 116.039 281.912 172.101L281.889 172.072ZM286.906 175.139C291.2 219.545 291.493 259.013 287.765 295.852C283.584 337.278 274.5 374.263 259.969 408.911C244.693 445.429 223.066 480.925 193.869 517.472C171.61 545.342 145.125 573.563 110.55 606.312C85.3079 630.209 63.2296 651.477 48.7668 669.736C37.0383 684.577 30.5527 697.022 28.4736 709H30.6657C36.609 679.727 66.3029 650.425 114.708 604.734C212.513 512.447 245.551 451.331 263.404 408.386C277.55 374.38 286.386 338.096 290.386 297.43C293.957 261.204 293.595 222.32 289.256 178.587C283.516 120.538 271.223 60.1521 257.302 0.116857H256.218C269.618 58.9543 281.347 118.113 286.861 175.168L286.906 175.139ZM196.536 624.688C192.536 628.31 188.627 631.874 184.808 635.322C151.859 665.149 126.482 688.141 110.934 708.971H113.239C129.058 687.761 154.571 664.74 187.632 634.913C191.881 631.086 196.265 627.142 200.739 623.081C251.517 577.098 313.187 514.667 345.955 435.409V427.316C313.775 511.19 249.257 576.835 196.513 624.717L196.536 624.688ZM345.932 123.226V116.711C336.644 77.8851 325.707 38.6796 314.792 0.0584285H313.82C325.21 40.8707 336.531 82.2672 345.91 123.196L345.932 123.226ZM345.932 88.6652V83.6988C338.452 55.7115 330.385 27.7243 322.408 0.0584285H321.458C329.842 29.3895 338.226 59.0419 345.932 88.6652ZM325.255 0.0876427C332.238 24.3062 339.266 48.7878 345.932 73.2693V68.7703C339.537 45.7787 332.825 22.8163 326.204 0.0876427H325.255ZM345.932 105.23V99.6497C337.458 66.4039 328.012 33.0413 318.611 0.0876427H317.639C327.47 34.8818 337.3 70.1726 345.932 105.23ZM317.074 191.996C321.775 234.386 322.588 272.13 319.56 307.334C316.148 346.919 307.99 382.297 294.634 415.514C261.189 498.745 197.056 565.12 144.922 613.645C101.127 654.399 70.8226 682.62 59.3879 708.971H61.7155C65.7606 699.885 72.0202 690.361 80.8109 679.786C96.6974 660.68 119.838 639.207 149.125 612.038C248.128 520.159 280.714 458.488 298.069 415.017C311.086 382.385 319.018 347.649 322.272 308.765C325.187 274.088 324.283 236.927 319.538 195.093C312.351 131.815 296.962 65.4983 280.443 0.0876427H279.403C295.425 64.4466 310.182 129.594 317.12 191.996H317.074ZM312.012 189.337C316.645 232.049 317.368 270.027 314.227 305.493C310.679 345.341 302.386 380.983 288.849 414.433C255.246 497.489 191.203 563.864 139.182 612.418C113.239 636.607 88.7429 659.482 72.9694 678.734C63.8849 689.835 57.6704 699.681 54.0095 708.971H56.3597C67.591 681.363 98.5053 652.587 143.385 610.811C242.184 518.874 274.861 457.29 292.284 413.907C305.482 381.07 313.549 346.072 316.916 306.925C319.922 272.014 319.131 234.59 314.453 192.493C307.515 130.033 292.668 64.6511 276.579 0.0876427H275.539C291.132 63.5994 305.369 127.783 312.035 189.337H312.012ZM327.198 197.138C332.057 238.972 333.051 276.191 330.226 310.927C327.063 349.986 319.199 384.897 306.182 417.734C273.053 501.316 208.716 567.662 156.379 616.099L154.933 617.443C113.058 656.181 83.3645 683.7 70.3932 708.971H72.7434C86.1441 683.175 115.928 655.713 157.599 617.238L160.582 614.492C212.784 566.288 276.917 500.323 309.617 417.238C322.295 385.014 329.933 350.687 332.961 312.329C335.65 278.119 334.565 241.426 329.662 200.147C321.956 135.262 305.482 67.1051 288.081 0.0876427H287.064C303.945 66.1118 319.786 133.129 327.221 197.138H327.198ZM345.932 143.237V135.612C336.034 90.6517 323.537 44.9899 310.995 0.0876427H310.024C323.131 47.59 336.079 95.8226 345.932 143.237ZM288.217 644.29C277.098 653.96 266.522 662.958 256.308 671.664C240.625 685.015 226.14 697.343 213.485 708.942H215.564C228.512 697.081 243.337 684.489 259.427 670.875C270.003 661.907 280.963 652.617 292.465 642.625C312.803 624.98 330.385 608.445 345.932 592.348V589.455C329.323 606.984 310.385 624.951 288.217 644.29ZM299.674 646.744C287.742 657.086 276.42 666.639 265.46 675.871C251.54 687.615 238.591 698.57 226.976 708.942H229.032C240.964 698.308 254.297 687.089 268.624 675.024C279.923 665.529 291.629 655.684 303.945 645.05C319.425 631.67 333.322 618.933 345.955 606.516V603.887C332.193 617.647 316.939 631.787 299.696 646.715L299.674 646.744ZM293.934 645.517C282.409 655.538 271.449 664.799 260.873 673.797C246.071 686.33 232.377 697.957 220.219 708.971H222.275C234.727 697.723 248.805 685.833 264.014 672.979C274.951 663.747 286.273 654.165 298.205 643.852C316.08 628.369 331.831 613.762 345.955 599.534V596.788C330.746 612.418 313.639 628.456 293.957 645.517H293.934ZM309.662 646.306C322.837 634.942 334.859 624.045 345.932 613.411V610.869C333.684 622.818 320.283 635.088 305.391 647.942C293.075 658.576 281.369 668.421 270.048 677.945C256.986 688.93 244.806 699.184 233.755 708.942H235.811C247.178 698.892 259.766 688.375 273.234 677.098C284.895 667.341 296.962 657.232 309.662 646.277V646.306ZM276.872 168.946C281.053 214.14 281.166 254.31 277.211 291.762C272.759 333.919 263.336 371.517 248.376 406.72C232.919 443.121 211.247 478.558 182.073 515.076C159.882 542.859 133.487 571.08 99.0702 603.858C51.3204 649.315 21.31 679.348 18.9372 709H20.9485C22.4851 695.532 29.1516 681.831 42.0325 665.442C56.5405 646.978 78.3251 625.915 103.228 602.28C200.626 509.817 233.8 448.906 251.834 406.165C266.409 371.634 275.562 334.737 279.833 293.398C283.629 256.559 283.426 217.032 279.223 172.539C273.912 116.389 262.59 58.1363 249.574 0.146071H248.466C260.986 56.9385 271.765 113.906 276.872 169.004V168.946ZM331.153 703.303C328.735 705.231 326.362 707.101 323.989 708.971H325.955C328.758 706.751 331.582 704.53 334.452 702.251C338.249 699.272 342.068 696.233 345.932 693.166V691.53C340.961 695.503 336.012 699.418 331.153 703.274V703.303ZM276.737 641.866C266.432 650.864 256.647 659.277 247.156 667.428C229.665 682.444 213.688 696.146 200.084 708.971H202.185C216.038 695.883 232.354 681.948 250.229 666.669C260.082 658.255 270.251 649.549 280.963 640.2C306.453 617.939 327.65 597.519 345.91 577.478V574.322C326.679 595.912 304.171 617.822 276.714 641.866H276.737ZM282.477 643.093C271.765 652.441 261.573 661.147 251.721 669.561C235.134 683.73 219.925 696.759 206.773 708.971H208.852C222.275 696.496 237.845 683.233 254.817 668.772C265.031 660.066 275.607 651.068 286.702 641.398C309.572 621.503 328.984 603.011 345.91 584.986V581.976C327.967 601.492 307.222 621.445 282.454 643.063L282.477 643.093ZM345.932 708.971V708.503C345.729 708.649 345.525 708.825 345.322 708.971H345.932ZM0.0225981 165.323V174.234C3.18634 162.694 6.0789 151.038 8.67768 139.264C18.6887 93.7484 24.3156 47.181 25.5133 0.0876427H24.0218C22.5529 47.1518 16.6774 93.7777 6.37267 139.439C4.40664 148.145 2.28241 156.764 0 165.353L0.0225981 165.323ZM220.354 265.586C214.366 313.089 202.75 355.274 184.808 394.538C148.696 473.65 89.3304 537.892 36.0214 590.303C21.7846 604.296 9.78499 616.566 0.0225981 627.638V630.531C10.5081 618.348 23.8636 604.705 40.1569 588.725C93.3529 536.578 152.56 472.657 188.288 393.837C241.664 276.22 232.286 139.439 206.773 0.0876427H205.575C213.213 42.828 219.292 85.4224 222.479 127.228C226.365 178.207 225.665 223.46 220.354 265.586ZM202.231 625.886C197.734 629.946 193.372 633.89 189.124 637.717C160.515 663.513 137.916 683.905 122.075 702.69C120.267 704.822 118.618 706.897 117.013 708.942H119.296C120.968 706.78 122.73 704.589 124.629 702.339C140.651 683.408 163.294 663.046 191.971 637.279C196.649 633.072 201.485 628.719 206.434 624.25C254.432 580.896 312.148 522.876 345.932 449.811V442.595C312.374 519.838 252.06 580.75 202.231 625.886ZM316.916 708.942H318.882C322.453 706.108 326.068 703.216 329.752 700.294C335.063 696.087 340.463 691.793 345.91 687.44V685.775C339.334 691.063 332.825 696.263 326.453 701.346C323.221 703.917 320.035 706.458 316.894 708.971L316.916 708.942ZM340.531 707.101C339.74 707.714 338.972 708.328 338.204 708.942H340.147C341.39 707.977 342.61 707.013 343.853 706.049C344.531 705.523 345.232 704.968 345.91 704.443V702.894C344.124 704.297 342.294 705.728 340.509 707.13L340.531 707.101ZM212.174 625.476C257.619 584.547 311.696 530.53 345.932 462.958V456.414C311.628 527.784 255.133 584.489 207.971 627.113C202.999 631.582 198.186 635.935 193.508 640.142C164.921 665.851 142.346 686.154 126.437 704.91C125.284 706.283 124.177 707.627 123.115 708.942H125.397C126.55 707.481 127.747 706.02 129.013 704.559C145.08 685.629 167.723 665.354 196.378 639.675C201.485 635.088 206.75 630.384 212.196 625.476H212.174ZM335.853 705.173C334.249 706.429 332.667 707.685 331.108 708.912H333.051C335.062 707.335 337.096 705.728 339.153 704.092C341.39 702.339 343.672 700.528 345.932 698.746V697.168C342.543 699.856 339.175 702.514 335.853 705.144V705.173ZM300.42 416.595C267.132 500.001 202.909 566.347 150.662 614.843C107.477 654.924 77.1952 683.029 64.8566 708.942H67.1616C71.2293 700.528 77.15 691.705 85.2176 682.035C101.104 662.958 124.177 641.603 153.374 614.58L154.82 613.236C254.026 521.445 286.544 459.657 303.809 416.098C316.668 383.67 324.441 349.139 327.583 310.518C330.385 276.074 329.39 239.148 324.577 197.605C317.12 133.509 301.21 66.2579 284.262 0.0292142H283.245C299.696 65.2354 314.995 131.318 322.159 194.537C326.95 236.635 327.854 274.117 324.916 309.086C321.617 348.409 313.617 383.554 300.442 416.566L300.42 416.595ZM322.611 651.623C309.391 662.929 296.804 673.329 284.646 683.379C273.844 692.319 263.607 700.791 254.093 708.912H256.127C265.98 700.499 276.601 691.734 287.855 682.474C300.374 672.161 313.3 661.498 326.905 649.929C333.142 644.583 339.514 638.973 345.977 633.16V630.91C338.068 638.155 330.249 645.05 322.634 651.594L322.611 651.623ZM328.351 652.85C314.747 664.448 301.798 675.111 289.279 685.424C279.335 693.633 269.867 701.433 261.008 708.912H263.02C272.24 701.112 282.092 693.02 292.488 684.518C305.346 673.972 318.656 663.046 332.622 651.156C337.006 647.416 341.458 643.531 345.955 639.558V637.396C340.011 642.742 334.113 647.884 328.351 652.85ZM316.894 650.396C303.787 661.644 291.358 672.015 279.313 682.064C267.991 691.501 257.302 700.411 247.45 708.942H249.28C259.743 699.914 271.132 690.478 283.245 680.458C295.403 670.408 307.967 660.008 321.165 648.731C329.232 641.778 337.548 634.416 345.977 626.704V624.425C336.916 632.868 327.289 641.515 316.916 650.425L316.894 650.396ZM259.585 638.126C250.546 646.102 241.936 653.581 233.597 660.826C212.965 678.734 194.931 694.422 180.31 708.912H182.457C197.304 694.159 215.654 678.267 236.625 660.125C245.348 652.587 254.365 644.787 263.811 636.461C290.25 613.207 319.492 585.628 345.955 553.551V549.899C318.34 584.255 287.403 613.586 259.562 638.126H259.585ZM238.117 663.017C218.456 680.019 201.123 695.036 186.864 708.912H189.011C203.519 694.773 221.168 679.552 241.19 662.286C250.297 654.457 259.698 646.336 269.573 637.688C300.578 610.49 325.232 585.979 345.977 561.673V558.284C319.877 589.572 291.267 616.537 265.325 639.353C255.879 647.679 246.839 655.48 238.117 663.017ZM253.845 636.899C245.258 644.495 237.032 651.682 229.077 658.605C207.473 677.449 188.717 693.809 173.78 708.912H175.949C191.112 693.546 210.163 676.981 232.105 657.933C240.444 650.688 249.054 643.21 258.093 635.234C286.454 610.227 318.046 580.253 345.977 545.05V541.194C316.961 578.763 283.629 610.577 253.867 636.87L253.845 636.899ZM334.091 654.077C320.103 665.967 306.792 676.893 293.911 687.469C284.827 694.919 276.127 702.076 267.923 708.942H269.935C278.499 701.755 287.606 694.334 297.12 686.534C310.34 675.725 324.012 664.565 338.362 652.383C340.87 650.25 343.401 648.03 345.955 645.839V643.765C341.955 647.3 337.978 650.747 334.091 654.077ZM321.843 699.359C317.775 702.602 313.82 705.786 309.911 708.912H311.877C316.193 705.465 320.6 701.93 325.119 698.337C331.944 692.903 338.904 687.352 345.977 681.655V679.932C337.774 686.593 329.729 693.02 321.843 699.33V699.359ZM312.51 695.445C306.792 700.06 301.233 704.559 295.832 708.942H297.821C303.606 704.238 309.594 699.418 315.764 694.481C325.571 686.593 335.65 678.5 345.977 670.028V668.217C334.475 677.741 323.357 686.709 312.51 695.474V695.445ZM307.854 693.458C301.301 698.775 294.951 703.917 288.849 708.912H290.838C297.346 703.595 304.126 698.132 311.131 692.465C322.408 683.35 334 674.001 346 664.039V662.17C332.825 673.183 320.148 683.496 307.877 693.429L307.854 693.458ZM317.165 697.402C312.284 701.317 307.515 705.144 302.86 708.912H304.826C309.888 704.822 315.086 700.674 320.441 696.409C328.78 689.748 337.277 682.912 345.977 675.871V674.118C336.147 682.181 326.543 689.894 317.165 697.431V697.402ZM303.199 691.472C295.81 697.49 288.669 703.303 281.844 708.912H283.833C291.041 702.982 298.589 696.847 306.431 690.507C319.153 680.195 332.283 669.532 345.955 658.05V656.151C345.819 656.268 345.684 656.385 345.548 656.502C330.814 668.977 316.758 680.399 303.177 691.442L303.199 691.472ZM339.831 655.304C325.458 667.487 311.786 678.676 298.544 689.485C290.296 696.233 282.386 702.69 274.884 708.942H276.872C284.759 702.398 293.098 695.62 301.775 688.55C315.357 677.507 329.368 666.084 344.102 653.639C344.712 653.113 345.345 652.558 345.977 652.032V650.016C343.921 651.799 341.865 653.581 339.831 655.304ZM315.425 647.504C326.362 638.097 336.486 629.011 345.955 620.13V617.706C335.288 627.901 323.741 638.331 311.154 649.169C298.453 660.125 286.364 670.233 274.703 679.99C262.523 690.186 251.065 699.768 240.602 708.912H242.636C253.438 699.476 265.279 689.631 277.889 679.114C289.911 669.093 302.34 658.722 315.425 647.475V647.504ZM271.042 640.58C261.167 649.257 251.743 657.349 242.636 665.208C224.241 681.071 207.519 695.474 193.485 708.912H195.564C209.688 695.386 226.614 680.838 245.709 664.448C255.178 656.327 264.986 647.913 275.268 638.915C303.47 614.229 326.407 591.763 345.955 569.648V566.347C325.481 590.069 301.256 614.054 271.042 640.58ZM79.2065 151.563C68.3368 228.543 45.5352 299.154 11.3895 361.468C7.72856 368.128 3.90948 374.702 0.0225981 381.187V386.387C5.22017 377.915 10.2144 369.326 15.0052 360.562C48.699 298.745 71.0485 228.484 81.4437 151.768C87.9293 103.886 89.8276 53.0822 87.1384 0.0876427H85.7373C88.1553 52.8777 85.9859 103.594 79.2065 151.563ZM193.191 95.735C197.372 151.563 196.468 201.111 190.412 247.152C183.655 298.452 170.096 345.809 150.142 387.906C113.239 465.733 54.3711 530.18 1.62707 582.97C1.06211 583.525 0.564953 584.051 0.0225981 584.606V587.206C1.89824 585.307 3.79649 583.408 5.73992 581.451C58.371 528.924 117.104 464.769 153.622 387.235C173.26 345.575 186.028 300.673 192.694 249.986C198.592 204.996 199.474 156.588 195.406 101.987C192.898 68.3321 188.581 34.2975 183.158 0.0876427H181.96C186.909 32.1649 190.819 64.1252 193.191 95.7642V95.735ZM183.452 82.9392C187.903 140.842 187 192.2 180.672 239.936C173.644 293.165 159.475 342.215 138.572 385.715C103.771 458.225 49.9419 519.516 0.0225981 570.495V573.154C89.1044 482.765 121.872 427.346 142.074 384.985C162.594 341.982 175.949 295.56 182.887 243.033C189.033 196.466 189.937 146.363 185.666 89.8629C183.406 60.1521 179.791 30.1783 175.271 0.0876427H174.051C178.096 27.8412 181.327 55.507 183.452 82.9684V82.9392ZM188.333 89.5124C192.626 146.363 191.723 196.758 185.531 243.617C178.638 295.852 164.786 344.027 144.357 386.796C108.313 462.344 51.6141 525.447 0.0451963 577.536V580.165C52.5859 527.58 111.228 463.396 147.882 386.095C167.949 343.793 181.011 298.16 187.813 246.568C193.847 200.819 194.751 151.593 190.57 96.0564C188.197 64.3297 184.243 32.2525 179.271 0.0584285H178.005C182.503 30.0322 186.096 59.8892 188.333 89.5124ZM0.0225981 109.641C7.16361 73.4738 11.5024 36.8683 13.0391 0.0876427H11.525C9.96578 33.1289 6.1015 66.0826 0 98.7441V109.641H0.0225981ZM168.74 60.6779C173.802 122.291 173.034 176.921 166.39 227.637C158.955 284.313 143.769 336.373 121.239 382.443C104.064 417.559 81.6019 452.324 52.5407 488.666C35.0723 510.548 16.813 530.91 0.0225981 548.789V551.565C75.8393 471.342 105.737 420.802 124.742 381.684C146.504 336.928 161.215 286.358 168.446 231.377C174.955 182.034 175.768 128.922 170.977 68.9456C169.147 46.1 166.548 23.1085 163.362 0.0876427H162.119C164.808 20.3331 167.045 40.5201 168.718 60.6779H168.74ZM202.954 107.245C206.976 161.263 206.118 209.203 200.287 253.784C193.734 304.12 181.101 348.73 161.69 390.127C125.058 468.362 66.0317 532.751 13.1069 585.395C8.4969 589.981 4.15806 594.363 0.0225981 598.599V601.258C5.33316 595.766 11.0505 589.981 17.2198 583.846C70.0316 531.465 128.922 467.398 165.192 389.426C184.017 348.964 196.265 305.405 202.637 256.296C208.287 212.68 209.123 165.762 205.168 112.884C202.389 75.6941 197.395 37.9493 191.067 0.0584285H189.847C195.677 36.0211 200.31 71.867 202.954 107.216V107.245ZM173.667 68.5658C178.48 128.864 177.644 182.297 171.113 231.961C163.814 287.38 148.967 338.388 127.024 383.524C109.917 418.698 87.5 453.492 58.4388 489.864C38.8914 514.346 18.3949 536.899 0.0451963 556.122V558.868C80.2686 475.199 111.115 423.022 130.549 382.794C151.769 338.885 166.141 289.308 173.26 235.496C179.655 187.146 180.514 135.116 175.926 76.366C173.96 51.0665 171 25.6209 167.384 0.116857H166.141C169.283 23.0208 171.881 45.8663 173.689 68.6242L173.667 68.5658ZM178.57 75.9862C183.18 135.028 182.299 187.409 175.881 236.051C168.718 290.331 154.21 340.316 132.809 384.605C115.793 419.838 93.3981 454.661 64.3369 491.033C42.6653 518.173 19.8186 542.888 0.0451963 563.338V566.026C84.6752 478.996 116.493 425.155 136.335 383.846C157.351 340.112 171 292.814 178.073 239.323C184.333 191.908 185.237 140.871 180.83 83.2605C178.706 55.6823 175.452 27.8996 171.384 0.0292142H170.119C173.712 25.4164 176.627 50.7451 178.593 75.9278L178.57 75.9862ZM190.593 395.648C154.616 474.965 95.1833 539.178 41.7614 591.53C24.5416 608.415 10.6663 622.643 0.0225981 635.176V638.331C11.3443 624.512 26.5754 608.854 45.8742 589.981C99.1832 537.892 158.458 474.001 194.05 394.976C247.201 277.039 236.761 139.732 210.66 0.0584285H209.507C235.043 139.819 244.331 277.126 190.57 395.619L190.593 395.648ZM0.0225981 51.9137C2.21462 34.6773 3.75129 17.3825 4.67781 0.0876427H3.16374C2.4406 12.4745 1.40108 24.8321 0.0225981 37.1897V51.9137ZM0.0225981 7.30356C0.180785 4.90799 0.338972 2.48321 0.497159 0.0876427H0.0225981V7.30356ZM0.0225981 83.2313C4.58742 55.6823 7.54778 27.9288 8.85847 0.0876427H7.34439C6.1015 23.8388 3.6383 47.5315 0 71.1074V83.2313H0.0225981ZM207.812 112.562C211.79 165.761 210.954 212.972 205.259 256.881C198.841 306.428 186.48 350.395 167.475 391.237C130.979 469.706 71.8621 534.036 18.8468 586.622C11.7962 593.633 5.58174 599.943 0.0451963 605.728V608.415C6.89243 601.17 14.5306 593.429 22.9597 585.073C75.8845 532.751 134.843 468.713 170.977 390.536C189.44 350.629 201.44 307.684 207.654 259.305C213.168 216.331 213.959 170.114 210.072 117.996C207.157 79.1705 201.779 39.7021 194.999 0.0584285H193.824C200.106 37.8324 205.078 75.4603 207.835 112.562H207.812ZM212.694 117.675C216.626 170.085 215.812 216.594 210.253 259.89C203.971 308.707 191.881 352.031 173.237 392.347C136.877 471.021 77.6698 535.351 24.5416 587.878C15.4119 596.905 7.2314 605.202 0 612.914V615.719C8.24832 606.75 17.8073 597.051 28.6544 586.329C81.6696 534.065 140.719 470.057 176.717 391.675C194.818 352.265 206.57 309.934 212.648 262.227C218.049 219.837 218.773 174.263 214.908 122.904C211.857 82.5302 206.118 41.3966 198.886 0.0876427H197.688C204.423 39.5853 209.778 78.966 212.671 117.675H212.694ZM217.575 122.554C221.462 174.234 220.716 220.1 215.292 262.782C209.168 310.927 197.304 353.667 179.022 393.428C142.798 472.336 83.5001 536.607 30.2815 589.076C18.6887 600.528 8.58729 610.782 0.0225981 620.189V622.993C9.46862 612.447 20.9033 600.791 34.417 587.527C87.5226 535.321 146.639 471.371 182.525 392.756C236.105 275.373 227.767 139.118 202.863 0.0876427H201.643C208.829 41.2505 214.547 82.2673 217.575 122.554ZM271.878 165.703C276.014 211.306 276.036 251.827 271.969 289.63C267.381 332.166 257.777 370.086 242.614 405.581C227.089 441.924 205.349 477.331 176.198 513.849C154.029 541.602 127.702 569.794 93.3529 602.602C65.625 629.07 47.0493 647.65 34.1684 664.273C20.8807 681.422 14.7114 695.299 14.3272 708.971H16.2707C18.3271 679.523 44.4505 651.536 97.5109 601.024C131.838 568.333 158.142 540.229 180.243 512.564C209.214 476.279 230.75 441.106 246.071 405.026C260.85 370.203 270.183 333.013 274.59 291.295C278.499 254.135 278.386 214.257 274.228 169.384C269.121 114.228 258.274 57.0846 245.709 0.116857H244.602C256.67 55.8284 266.997 111.686 271.901 165.732L271.878 165.703ZM198.073 101.636C202.163 156.53 201.282 205.23 195.338 250.541C188.627 301.695 175.746 347.007 155.927 389.046C119.183 467.077 60.224 531.465 7.38959 584.197C4.8586 586.709 2.418 589.163 0.0451963 591.588V594.217C3.70609 590.478 7.47998 586.651 11.5024 582.648C64.2239 530.18 123.047 466.084 159.43 388.345C178.661 347.299 191.158 303.098 197.666 253.2C203.451 208.911 204.31 161.292 200.31 107.567C197.666 72.1007 193.011 36.1672 187.135 0.0584285H185.915C191.316 34.1222 195.587 68.0691 198.095 101.607L198.073 101.636ZM88.9236 153.17C78.8449 230.646 56.6535 301.462 22.9597 363.659C15.7961 376.922 8.09013 389.776 0.0225981 402.338V407.129C9.40082 392.814 18.3271 378.032 26.5528 362.782C80.7657 262.139 103.748 140.374 95.2511 0.0876427H93.8726C96.833 53.6957 95.1833 104.967 88.9236 153.199V153.17ZM98.6408 154.777C89.353 232.721 67.7944 303.74 34.5299 365.85C23.9992 385.511 12.3612 404.325 0.0451963 422.379V426.849C13.7171 407.188 26.6206 386.621 38.123 364.973C70.9355 303.36 92.0422 232.721 100.855 155.069C106.347 106.72 107.16 54.8059 103.341 0.0584285H101.985C105.511 54.543 104.426 106.34 98.6408 154.777ZM28.7448 364.769C19.8864 381.246 10.2144 397.109 0.0225981 412.446V417.179C11.5476 400.118 22.4399 382.385 32.3379 363.892C65.3538 302.221 86.7768 231.698 95.9969 154.28C101.737 106.048 102.821 54.3969 99.2962 0.0876427H97.9177C106.437 141.075 83.2741 263.512 28.7448 364.769ZM84.065 152.381C73.6021 229.624 51.0944 300.322 17.1746 362.578C11.7284 372.569 5.98851 382.356 0.0225981 391.938V396.875C7.2766 385.423 14.2594 373.708 20.7677 361.672C54.2355 299.913 76.2687 229.565 86.2797 152.615C92.5168 104.587 94.1664 53.5205 91.1835 0.0876427H89.7824C92.4716 53.2867 90.5733 104.295 84.0425 152.381H84.065ZM109.669 380.223C92.336 415.222 69.8056 449.899 40.767 486.271C27.3211 503.098 13.4007 519.107 0.0225981 533.773V536.665C67.2068 463.425 95.0704 416.332 113.194 379.493C136.154 332.867 151.588 280.018 159.068 222.496C165.78 170.932 166.435 115.367 161.125 52.6148C159.633 35.1739 157.69 17.6454 155.43 0.146071H154.187C170.887 134.356 166.164 266.171 109.646 380.282L109.669 380.223ZM0.0225981 202.542V210.722C21.4908 143.237 32.6543 72.2176 33.7616 0.0876427H32.3379C30.9368 69.1501 20.2253 137.336 0.0225981 202.542ZM0.0225981 219.662V227.725C9.49122 199.884 17.265 171.225 23.2309 141.806C32.5639 95.735 37.4677 48.3203 37.9423 0.116857H36.4508C35.2983 75.4019 23.2309 149.518 0.0225981 219.691V219.662ZM11.2313 140.228C7.95454 155.128 4.20325 169.851 0.0225981 184.4V193.077C5.17497 175.694 9.6946 158.02 13.5363 140.111C23.3213 94.4204 28.6996 47.5608 29.6713 0.0876427H28.2025C26.9822 47.5023 21.3326 94.3912 11.2539 140.228H11.2313ZM148.605 22.4073C162.503 166.2 145.984 282.502 98.1211 378.003C71.9298 430.238 37.1287 476.25 0.0451963 518.29V521.503C38.5072 478.471 74.7772 431.231 101.669 377.243C126.03 328.397 142.255 272.89 149.939 212.271C156.808 158.049 157.193 99.5913 151.114 33.5964C150.097 22.4365 148.854 11.2767 147.498 0.0876427H146.233C147.091 7.53727 147.905 14.9869 148.628 22.4073H148.605ZM153.735 33.1581C166.593 172.861 150.278 286.007 103.884 379.113C76.4043 434.269 39.2981 482.327 0.0225981 526.06V529.186C12.8357 515.076 26.1008 499.797 38.914 483.758C67.7944 447.591 90.2117 413.118 107.432 378.353C163.565 265.002 168.175 133.801 151.498 0.0876427H150.165C151.475 11.1306 152.718 22.1444 153.735 33.1581ZM143.363 10.634C158.526 158.955 141.826 278.762 92.336 376.893C67.4554 426.235 34.8915 470.057 0.0451963 510.314V513.674C36.3152 472.365 70.2802 427.2 95.8839 376.104C143.408 281.333 159.791 165.791 145.961 22.8455C145.238 15.2498 144.402 7.65413 143.543 0.0876427H142.233C142.617 3.62256 143.001 7.12827 143.363 10.634ZM118.053 158.02C114.324 196.349 107.59 233.188 98.0307 267.456C87.9067 303.77 74.3253 338.359 57.6478 370.261C41.106 401.9 21.423 431.553 0.0225981 459.627V463.571C22.8241 434.123 43.8178 402.893 61.2183 369.414C77.6698 337.746 91.0479 303.39 100.923 267.252C110.234 233.188 116.742 196.583 120.267 158.4C124.809 108.911 124.584 56.6172 119.522 0.0584285H118.12C122.821 56.2958 122.821 109.232 118.075 158.02H118.053ZM108.335 156.413C99.8385 234.824 78.9127 306.048 46.0776 368.07C32.3379 394.041 16.6774 418.435 0.0225981 441.485V445.605C18.3271 420.743 35.2079 394.713 49.6481 367.223C82.0312 305.698 102.505 234.882 110.527 156.764C115.522 108.209 115.77 55.7407 111.364 0.0876427H110.008C114.121 55.4486 113.556 107.8 108.29 156.413H108.335ZM86.5508 375.783C63.0036 422.204 32.6543 463.863 0.0225981 502.28V505.669C34.0554 466.142 65.7832 423.168 90.0987 374.994C139.227 277.594 155.791 158.575 140.719 11.1014C140.334 7.42041 139.95 3.76863 139.543 0.0876427H138.233C154.481 152.352 137.577 275.286 86.5508 375.812V375.783ZM122.911 158.838C119.386 197.254 112.832 234.152 103.432 268.45C93.4659 304.85 80.02 339.499 63.433 371.4C45.4448 406.019 23.6602 438.184 0.0451963 468.479V472.365C25.1065 440.726 48.1792 407.013 67.0035 370.553C118.776 270.319 137.374 148.73 123.476 0.0876427H122.166C127.205 56.7632 127.453 109.203 122.889 158.838H122.911ZM163.791 52.1766C169.147 115.221 168.469 171.108 161.712 223.021C154.164 281.041 138.617 334.298 115.454 381.333C98.2115 416.39 75.7037 451.097 46.6651 487.469C31.2306 506.779 15.1633 525.009 0.0451963 541.34V544.173C71.5231 467.428 100.403 418.581 119.002 380.603C141.351 334.941 156.402 283.29 163.769 227.082C170.367 176.688 171.136 122.378 166.096 61.0869C164.424 40.8415 162.164 20.5084 159.452 0.146071H158.164C160.402 17.5285 162.322 34.911 163.791 52.235V52.1766ZM333.029 0.701141C337.322 15.279 341.661 29.9738 345.932 44.727V41.0168C342.384 28.9805 338.814 16.9735 335.243 5.02485C334.746 3.38885 334.272 1.72364 333.774 0.0876427H332.848C332.916 0.292142 332.961 0.496642 333.029 0.701141ZM337.729 3.76863C340.463 12.9127 343.198 22.1152 345.91 31.3176V27.8996C343.921 21.268 341.932 14.6655 339.944 8.06313C339.153 5.40463 338.339 2.74614 337.548 0.116857H336.622C336.983 1.34385 337.345 2.57085 337.706 3.79785L337.729 3.76863ZM74.9806 373.591C54.1677 414.141 28.1573 451.184 0.0225981 485.686V489.338C29.581 453.609 56.9247 415.134 78.5285 372.773C129.6 272.802 146.956 150.745 131.521 0.0876427H130.188C144.854 150.424 126.708 272.861 74.9806 373.591ZM84.3136 373.884C135.001 274 151.769 151.709 135.521 0.0876427H134.21C149.645 151.388 132.131 274.088 80.7657 374.702C58.5744 418.172 30.4171 457.553 0.0225981 494.042V497.577C31.8182 459.919 61.3539 419.166 84.3136 373.884ZM345.932 58.6622V54.6014C340.87 36.956 335.695 19.3982 330.543 1.92814C330.362 1.31464 330.181 0.701141 330.001 0.0876427H329.051C334.724 19.4859 340.396 39.0594 345.932 58.6622ZM345.932 5.72599V2.68771C345.661 1.81128 345.39 0.964069 345.141 0.0876427H344.237C344.802 1.95735 345.367 3.82706 345.955 5.69677L345.932 5.72599ZM196.378 396.788C160.56 476.338 101.014 540.522 47.5013 592.815C27.1404 612.71 11.3895 628.982 0.0451963 643.122V646.423C13.0843 629.45 32.4735 609.935 51.6367 591.267C105.036 539.236 164.424 475.374 199.858 396.174C252.783 277.973 241.303 140.111 214.592 0.146071H213.439C239.563 140.228 249.913 278.061 196.378 396.817V396.788ZM342.452 6.7777C343.605 10.634 344.78 14.4903 345.932 18.3465V15.133C345.503 13.7599 345.096 12.3868 344.667 11.0138C343.559 7.3912 342.452 3.73942 341.345 0.0876427H340.418C341.096 2.30792 341.752 4.55742 342.429 6.7777H342.452ZM261.935 158.984C265.98 205.464 265.844 246.773 261.528 285.277C256.67 328.631 246.704 367.252 231.066 403.361C215.383 439.586 193.576 474.936 164.424 511.424C135.408 547.737 103.432 579.435 81.8956 600.119C34.191 645.926 5.22017 675.9 5.26536 705.699C5.26536 706.78 5.31056 707.861 5.40095 708.942H7.16361C7.16361 708.649 7.14101 708.357 7.14101 708.065C7.14101 693.078 13.3781 678.237 27.4341 659.979C40.2925 643.268 59.4105 624.074 86.0763 598.541C120.267 565.792 146.458 537.717 168.514 510.11C197.485 473.855 219.089 438.739 234.569 402.747C249.822 367.31 259.494 329.449 264.172 286.942C268.33 249.11 268.375 208.473 264.33 162.752C259.63 109.67 249.709 54.8351 238.026 0.0584285H236.896C248.082 53.5205 257.506 107.041 262.003 158.955L261.935 158.984ZM266.907 162.402C270.997 208.443 270.929 249.343 266.748 287.497C262.025 330.413 252.24 368.683 236.828 404.5C221.213 440.784 199.451 476.163 170.3 512.651C148.176 540.346 121.894 568.538 87.6129 601.375C39.1625 647.767 9.7398 678.091 9.76239 708.065C9.76239 708.357 9.76239 708.649 9.78499 708.971H11.638C12.0222 694.305 18.4175 679.669 32.2701 661.819C45.2641 645.05 63.9301 626.382 91.7484 599.826C126.007 567.106 152.266 539.002 174.322 511.366C203.293 475.111 224.851 439.966 240.263 403.916C255.268 368.8 264.782 331.26 269.325 289.162C273.37 251.681 273.324 211.423 269.234 166.141C264.33 112.007 253.958 56.0037 241.823 0.116857H240.715C252.353 54.7182 262.206 109.407 266.907 162.431V162.402ZM225.281 402.28C209.507 438.447 187.678 473.767 158.526 510.256C129.555 546.511 97.6465 578.208 76.1331 598.921C50.4842 623.607 32.0667 642.245 19.4796 658.839C6.46307 675.988 0.655346 689.748 0.677944 703.391C0.677944 705.231 0.790935 707.101 1.01692 708.971H2.66658C2.59879 707.89 2.55359 706.809 2.55359 705.728C2.50839 674.293 31.886 643.794 80.2686 597.343C101.737 576.718 133.645 545.137 162.548 508.941C191.519 472.686 213.146 437.6 228.716 401.666C244.195 365.908 254.071 327.696 258.862 284.78C263.133 246.568 263.268 205.551 259.268 159.364C254.749 107.362 245.28 53.725 234.049 0.0876427H232.942C262.048 141.689 277.708 282.093 225.281 402.28ZM213.711 400.089C197.779 436.139 175.881 471.401 146.752 507.86C117.894 543.998 86.0989 575.725 64.6759 596.467C31.7278 628.369 10.6889 650.688 0.0225981 669.795V674.732C3.09594 668.421 7.2766 661.761 12.6776 654.574C25.2421 637.893 44.2019 618.64 68.8113 594.889C90.2117 574.235 121.985 542.596 150.775 506.545C179.723 470.291 201.44 435.263 217.168 399.446C269.438 280.398 254.749 140.988 226.275 0.0876427H225.145C253.054 141.075 266.568 280.457 213.711 400.06V400.089ZM207.925 398.979C191.926 434.971 169.983 470.203 140.854 506.662C112.042 542.713 80.3138 574.498 58.9359 595.24C31.1176 622.263 11.6154 642.713 0 660.241V664.156C11.4798 645.43 32.0894 623.694 63.0714 593.691C84.4266 573.008 116.132 541.369 144.877 505.377C173.825 469.151 195.564 434.153 211.383 398.365C263.878 279.609 250.252 140.696 222.366 0.116857H221.213C248.534 140.813 260.986 279.668 207.903 399.008L207.925 398.979ZM202.14 397.868C166.458 477.623 106.821 541.778 53.2186 594.013C29.3776 617.238 11.7284 635.585 0.0225981 651.39V654.866C11.8866 637.951 30.7335 618.319 57.3541 592.465C78.6641 571.752 110.324 540.083 139.001 504.15C167.949 467.924 189.734 432.955 205.62 397.226C258.342 278.762 245.777 140.374 218.501 0.0876427H217.349C244.082 140.462 255.472 278.821 202.163 397.868H202.14ZM219.473 401.17C203.632 437.278 181.757 472.569 152.628 509.029C123.725 545.225 91.8614 576.952 70.3932 597.665C31.095 635.614 8.4743 660.154 0 681.685V688.901C2.75697 678.851 8.4517 668.363 17.5813 656.356C30.2815 639.616 48.7894 620.89 74.5512 596.087C95.9743 575.462 127.815 543.823 156.673 507.714C185.621 471.459 207.315 436.402 222.953 400.527C238.681 364.447 248.738 325.826 253.687 282.502C258.093 243.91 258.297 202.484 254.319 155.829C249.981 104.938 240.964 52.5272 230.162 0.0584285H229.055C257.551 141.368 272.149 281.245 219.496 401.14L219.473 401.17ZM54.9361 147.532C44.3827 209.992 25.9427 268.625 0.0225981 322.35V328.572C27.3663 273.328 46.5747 212.592 57.1733 147.619C64.8792 100.409 68.043 51.0372 66.7097 0.0876427H65.286C66.3481 50.862 62.9132 100.234 54.9135 147.532H54.9361ZM0.0225981 281.742V288.607C37.1287 201.637 55.5688 103.857 54.4163 0.0876427H52.97C53.5802 100.789 35.6599 196.144 0 281.742H0.0225981ZM0.0225981 309.262V315.747C24.5868 263.658 42.1455 207.012 52.3373 146.772C60.2918 99.7081 63.7041 50.599 62.642 0.0876427H61.2183C63.0036 112.387 42.2585 217.412 0.0451963 309.262H0.0225981ZM0.0225981 295.736V302.396C40.4281 212.329 60.2692 109.699 58.5292 0.0876427H57.1055C58.2806 106.632 38.9366 206.866 0.0225981 295.736ZM35.5243 144.289C27.3437 187 15.4571 228.046 0.0225981 267.135V274.322C33.8746 190.71 50.9136 97.9553 50.326 0.0876427H48.8572C48.8798 49.3428 44.4505 97.6047 35.5243 144.289ZM1.53667 138.621C1.06211 140.696 0.519757 142.77 0.0225981 144.844V154.339C1.33329 149.051 2.62138 143.763 3.81908 138.417C14.056 93.1057 19.909 46.8304 21.3778 0.0876427H19.8864C18.1915 46.8012 12.0674 93.1642 1.53667 138.621ZM126.911 168.771C123.25 205.551 116.765 240.871 107.657 273.737C97.9855 308.59 85.0594 341.806 69.2181 372.481C49.8063 410.08 25.9201 444.728 0.0451963 477.185V480.895C27.3437 447.182 52.5407 411.073 72.7886 371.663C124.177 271.575 142.165 149.752 127.499 0.0876427H126.188C131.883 60.824 132.109 116.419 126.889 168.771H126.911ZM30.6657 143.471C23.2761 180.953 13.0165 217.208 0.0225981 252.002V259.393C14.2142 222.408 25.2195 183.641 32.9255 143.442C41.8065 97.0204 46.2132 49.0507 46.1906 0.0876427H44.7443C44.5183 48.963 39.8405 96.962 30.6657 143.471ZM0.0225981 236.226V243.88C11.7962 211.306 21.197 177.506 28.0669 142.624C37.1739 96.3777 41.8291 48.6709 42.0551 0.0876427H40.5862C40.1117 48.5833 35.1853 96.3193 25.7845 142.682C19.2762 174.789 10.6437 206.048 0 236.255L0.0225981 236.226ZM0.0225981 132.895C9.80759 89.2786 15.5701 44.8438 17.2198 0.0876427H15.7283C14.0108 41.3966 8.74548 82.4717 0.0225981 122.963V132.895ZM74.3479 150.775C63.094 227.52 39.9761 298.044 5.60434 360.387C3.77389 363.688 1.89824 366.96 0.0225981 370.232V375.578C3.16374 370.261 6.23708 364.886 9.22004 359.481C43.1172 297.605 65.7832 227.462 76.5851 150.979C83.3193 103.214 85.4661 52.7025 83.0707 0.116857H81.6696C83.8165 52.498 81.3759 102.951 74.3704 150.804L74.3479 150.775ZM95.4997 266.317C104.991 232.282 111.68 195.706 115.386 157.611C120.132 108.969 120.109 56.2082 115.386 0.0876427H114.053C118.459 55.8868 118.166 108.531 113.171 157.231C105.081 235.876 84.4492 307.188 51.8401 369.18C36.7898 397.81 19.1406 424.833 0 450.6V454.69C20.5417 427.492 39.4789 398.833 55.4106 368.333C71.9525 336.694 85.4435 302.367 95.4997 266.288V266.317ZM105.669 155.946C110.912 107.508 111.454 55.3025 107.341 0.0876427H105.985C109.804 55.0104 108.968 107.099 103.454 155.624C94.5732 233.801 73.3083 304.909 40.2699 366.989C28.1347 389.805 14.4854 411.482 0 432.078V436.46C15.8413 414.316 30.7335 390.945 43.863 366.142C76.4495 304.558 97.2398 233.86 105.669 155.975V155.946ZM59.7721 148.35C48.812 215.513 28.7222 278.178 0 334.97V340.959C30.1685 282.764 51.0266 218.113 62.0093 148.467C69.4893 101.11 72.4044 51.4462 70.7999 0.116857H69.3763C70.7096 51.3002 67.5232 100.906 59.7721 148.35ZM64.6307 149.168C53.309 220.976 31.5696 287.497 0 347.182V352.908C33.0611 291.996 55.5688 223.547 66.8679 149.314C74.0993 101.812 76.7659 51.8845 74.8902 0.116857H73.4665C75.071 51.68 72.1332 101.578 64.6307 149.168ZM69.4893 149.986C57.8738 226.352 34.4847 296.641 0.0225981 358.955V364.418C1.1525 362.402 2.32761 360.416 3.43492 358.4C37.5581 296.466 60.5404 226.41 71.7265 150.161C78.7093 102.542 81.1273 52.2935 78.9805 0.146071H77.5794C79.455 52.1182 76.7659 102.279 69.5119 150.015L69.4893 149.986Z" fill="var(--fill-0, #FFF3C0)"/>
</svg>
