<svg preserveAspectRatio="none" width="100%" height="100%" overflow="visible" style="display: block;" viewBox="0 0 20 20" fill="none" xmlns="http://www.w3.org/2000/svg">
<g id="Need help?_Profile Container">
<g id="Vector">
<path d="M17.5897 5.90203C17.3637 4.54891 16.2564 3.48537 14.895 3.31453C11.647 2.90828 8.35329 2.90828 5.10537 3.31453C3.74391 3.48433 2.63558 4.54891 2.41058 5.90203C2.04912 8.06766 2.04912 10.2645 2.41058 12.4302C2.63662 13.7833 3.74391 14.8468 5.10537 15.0177C6.02308 15.1322 6.94496 15.2135 7.86787 15.2635L8.78662 16.6416C9.05745 17.0479 9.51162 17.2906 10.0002 17.2906C10.4887 17.2906 10.9429 17.0479 11.2137 16.6416L12.1325 15.2635C13.0554 15.2135 13.9772 15.1322 14.895 15.0177C16.2564 14.8479 17.3647 13.7833 17.5897 12.4302C17.9512 10.2645 17.9512 8.06766 17.5897 5.90203ZM16.3564 12.225C16.221 13.0364 15.5564 13.675 14.7397 13.777C11.595 14.1697 8.40537 14.1697 5.26058 13.777C4.44391 13.675 3.77933 13.0364 3.64391 12.225C3.30537 10.1958 3.30537 8.13745 3.64391 6.10724C3.77933 5.29578 4.44391 4.65724 5.26058 4.55516C6.83349 4.35828 8.41683 4.26037 10.0002 4.26037C11.5835 4.26037 13.1679 4.35828 14.7397 4.55516C15.5564 4.65724 16.221 5.29578 16.3564 6.10724C16.695 8.13641 16.695 10.1947 16.3564 12.225Z" fill="var(--fill-0, #101628)"/>
<path d="M17.5897 5.90203C17.3637 4.54891 16.2564 3.48537 14.895 3.31453C11.647 2.90828 8.35329 2.90828 5.10537 3.31453C3.74391 3.48433 2.63558 4.54891 2.41058 5.90203C2.04912 8.06766 2.04912 10.2645 2.41058 12.4302C2.63662 13.7833 3.74391 14.8468 5.10537 15.0177C6.02308 15.1322 6.94496 15.2135 7.86787 15.2635L8.78662 16.6416C9.05745 17.0479 9.51162 17.2906 10.0002 17.2906C10.4887 17.2906 10.9429 17.0479 11.2137 16.6416L12.1325 15.2635C13.0554 15.2135 13.9772 15.1322 14.895 15.0177C16.2564 14.8479 17.3647 13.7833 17.5897 12.4302C17.9512 10.2645 17.9512 8.06766 17.5897 5.90203ZM16.3564 12.225C16.221 13.0364 15.5564 13.675 14.7397 13.777C11.595 14.1697 8.40537 14.1697 5.26058 13.777C4.44391 13.675 3.77933 13.0364 3.64391 12.225C3.30537 10.1958 3.30537 8.13745 3.64391 6.10724C3.77933 5.29578 4.44391 4.65724 5.26058 4.55516C6.83349 4.35828 8.41683 4.26037 10.0002 4.26037C11.5835 4.26037 13.1679 4.35828 14.7397 4.55516C15.5564 4.65724 16.221 5.29578 16.3564 6.10724C16.695 8.13641 16.695 10.1947 16.3564 12.225Z" fill="var(--fill-1, #0057FF)"/>
<path d="M13.3335 10.1041C13.8513 10.1041 14.271 9.68438 14.271 9.16662C14.271 8.64885 13.8513 8.22912 13.3335 8.22912C12.8157 8.22912 12.396 8.64885 12.396 9.16662C12.396 9.68438 12.8157 10.1041 13.3335 10.1041Z" fill="var(--fill-0, #101628)"/>
<path d="M13.3335 10.1041C13.8513 10.1041 14.271 9.68438 14.271 9.16662C14.271 8.64885 13.8513 8.22912 13.3335 8.22912C12.8157 8.22912 12.396 8.64885 12.396 9.16662C12.396 9.68438 12.8157 10.1041 13.3335 10.1041Z" fill="var(--fill-1, #0057FF)"/>
<path d="M10.0002 10.1041C10.5179 10.1041 10.9377 9.68438 10.9377 9.16662C10.9377 8.64885 10.5179 8.22912 10.0002 8.22912C9.48239 8.22912 9.06265 8.64885 9.06265 9.16662C9.06265 9.68438 9.48239 10.1041 10.0002 10.1041Z" fill="var(--fill-0, #101628)"/>
<path d="M10.0002 10.1041C10.5179 10.1041 10.9377 9.68438 10.9377 9.16662C10.9377 8.64885 10.5179 8.22912 10.0002 8.22912C9.48239 8.22912 9.06265 8.64885 9.06265 9.16662C9.06265 9.68438 9.48239 10.1041 10.0002 10.1041Z" fill="var(--fill-1, #0057FF)"/>
<path d="M6.66682 10.1041C7.18459 10.1041 7.60432 9.68438 7.60432 9.16662C7.60432 8.64885 7.18459 8.22912 6.66682 8.22912C6.14905 8.22912 5.72932 8.64885 5.72932 9.16662C5.72932 9.68438 6.14905 10.1041 6.66682 10.1041Z" fill="var(--fill-0, #101628)"/>
<path d="M6.66682 10.1041C7.18459 10.1041 7.60432 9.68438 7.60432 9.16662C7.60432 8.64885 7.18459 8.22912 6.66682 8.22912C6.14905 8.22912 5.72932 8.64885 5.72932 9.16662C5.72932 9.68438 6.14905 10.1041 6.66682 10.1041Z" fill="var(--fill-1, #0057FF)"/>
</g>
</g>
</svg>
