<svg preserveAspectRatio="none" width="100%" height="100%" overflow="visible" style="display: block;" viewBox="0 0 14.5833 16.2495" fill="none" xmlns="http://www.w3.org/2000/svg">
<g id="Vector">
<path d="M7.29479 7.2953C8.44539 7.2953 9.37813 6.36256 9.37813 5.21197C9.37813 4.06138 8.44539 3.12864 7.29479 3.12864C6.1442 3.12864 5.21146 4.06138 5.21146 5.21197C5.21146 6.36256 6.1442 7.2953 7.29479 7.2953Z" fill="var(--fill-0, #666D85)"/>
<path d="M14.0375 1.91197C12.5021 1.7203 10.9417 1.24115 9.39896 0.489063C8.06042 -0.163021 6.525 -0.163021 5.18646 0.489063C3.6448 1.24115 2.08438 1.71926 0.547918 1.91197C0.235418 1.95155 0 2.21719 0 2.53177V9.74948C0 11.412 0.841666 12.9318 2.25208 13.813L5.19375 15.6516C5.83125 16.0495 6.56146 16.2495 7.29167 16.2495C8.02188 16.2495 8.75208 16.0505 9.38958 15.6516L12.3313 13.813C13.7417 12.9318 14.5833 11.413 14.5833 9.74948V2.53177C14.5833 2.21614 14.349 1.95051 14.0354 1.91197H14.0375ZM8.72917 14.5922C7.8573 15.137 6.73021 15.137 5.85833 14.5922L4.58542 13.7964V12.2974C4.58542 10.8036 5.8 9.58906 7.29375 9.58906C8.7875 9.58906 10.0021 10.8036 10.0021 12.2974V13.7964L8.72917 14.5922ZM13.3354 9.75051C13.3354 10.9797 12.7135 12.1026 11.6708 12.7536L11.2521 13.0151V12.2974C11.2521 10.1151 9.47604 8.33906 7.29375 8.33906C5.11146 8.33906 3.33542 10.1151 3.33542 12.2974V13.0151L2.91667 12.7536C1.87396 12.1026 1.25209 10.9797 1.25209 9.75051V3.07343C2.74584 2.8276 4.25104 2.33697 5.73542 1.61405C6.72604 1.13176 7.86146 1.13176 8.85209 1.61405C10.3365 2.33801 11.8417 2.8276 13.3354 3.07343V9.75051Z" fill="var(--fill-0, #666D85)"/>
</g>
</svg>
