<svg preserveAspectRatio="none" width="100%" height="100%" overflow="visible" style="display: block;" viewBox="0 0 7.2 8.4" fill="none" xmlns="http://www.w3.org/2000/svg">
<path id="Vector" fill-rule="evenodd" clip-rule="evenodd" d="M3.6 0C3.84853 0 4.05 0.201472 4.05 0.45V6.83275L6.42563 4.3381C6.59788 4.15895 6.88275 4.15337 7.0619 4.32562C7.24105 4.49788 7.24663 4.78275 7.07438 4.9619L3.92438 8.2619C3.83953 8.35013 3.72241 8.4 3.6 8.4C3.47759 8.4 3.36047 8.35013 3.27563 8.2619L0.125626 4.9619C-0.0466313 4.78275 -0.0410457 4.49788 0.138102 4.32562C0.317249 4.15337 0.602118 4.15895 0.774375 4.3381L3.15 6.83275V0.45C3.15 0.201472 3.35147 0 3.6 0Z" fill="var(--fill-0, #666D85)"/>
</svg>
