<svg preserveAspectRatio="none" width="100%" height="100%" overflow="visible" style="display: block;" viewBox="0 0 15.7206 12.312" fill="none" xmlns="http://www.w3.org/2000/svg">
<g id="Group 2147226750">
<g id="Vector">
<path d="M15.4503 2.89219C15.2242 1.53906 14.1169 0.475521 12.7555 0.304688C9.50755 -0.101562 6.2138 -0.101562 2.96589 0.304688C1.60443 0.474479 0.496094 1.53906 0.271094 2.89219C-0.0903646 5.05781 -0.0903646 7.25469 0.271094 9.42031C0.497135 10.7734 1.60443 11.837 2.96589 12.0078C4.58984 12.2109 6.22526 12.312 7.86068 12.312C9.49609 12.312 11.1315 12.2109 12.7555 12.0078C14.1169 11.838 15.2253 10.7734 15.4503 9.42031C15.8107 7.25469 15.8107 5.05781 15.4503 2.89219ZM1.4388 3.52135C1.45859 3.37969 1.48047 3.23906 1.50443 3.0974C1.63984 2.28594 2.30443 1.6474 3.12109 1.54531C4.69401 1.34844 6.27734 1.25052 7.86068 1.25052C9.44401 1.25052 11.0284 1.34844 12.6003 1.54531C13.4169 1.6474 14.0815 2.28594 14.2169 3.0974C14.2409 3.23802 14.2628 3.37969 14.2826 3.52135C14.3253 3.81823 14.2388 4.10781 14.0409 4.33698C13.8419 4.56719 13.5534 4.69844 13.2492 4.69844H2.47213C2.16797 4.69844 1.87943 4.56615 1.68047 4.33698C1.48255 4.10885 1.39609 3.81927 1.4388 3.52135ZM14.2169 9.21511C14.0815 10.0266 13.4169 10.6651 12.6003 10.7672C9.45547 11.1599 6.26589 11.1599 3.12109 10.7672C2.30443 10.6651 1.63984 10.0266 1.50443 9.21511C1.30443 8.01615 1.22318 6.80781 1.25964 5.60156C1.62005 5.82552 2.0388 5.94844 2.47213 5.94844H13.2492C13.6826 5.94844 14.1003 5.82552 14.4607 5.6026C14.4971 6.80885 14.4169 8.01719 14.2169 9.21615V9.21511Z" fill="var(--fill-0, #666D85)"/>
<path d="M12.0273 7.40677C11.7065 7.40677 11.4148 7.52864 11.194 7.72656C11.4492 7.95573 11.6107 8.28698 11.6107 8.65677C11.6107 9.02656 11.4492 9.35781 11.194 9.58698C10.9388 9.35781 10.7773 9.02656 10.7773 8.65677C10.7773 8.28698 10.9388 7.95573 11.194 7.72656C10.9732 7.52864 10.6815 7.40677 10.3607 7.40677C9.67004 7.40677 9.11067 7.96614 9.11067 8.65677C9.11067 9.34739 9.67004 9.90677 10.3607 9.90677C10.6815 9.90677 10.9732 9.78489 11.194 9.58698C11.4148 9.78593 11.7065 9.90677 12.0273 9.90677C12.718 9.90677 13.2773 9.34739 13.2773 8.65677C13.2773 7.96614 12.718 7.40677 12.0273 7.40677Z" fill="var(--fill-0, #666D85)"/>
</g>
</g>
</svg>
