<svg preserveAspectRatio="none" width="100%" height="100%" overflow="visible" style="display: block;" viewBox="0 0 12.9167 14.5833" fill="none" xmlns="http://www.w3.org/2000/svg">
<g id="Group 2147226751">
<g id="Vector">
<path d="M2.29167 4.58333C3.33854 4.58333 4.22292 3.87708 4.49583 2.91667H12.2917C12.6365 2.91667 12.9167 2.63646 12.9167 2.29167C12.9167 1.94688 12.6365 1.66667 12.2917 1.66667H4.49583C4.22292 0.70625 3.33854 0 2.29167 0C1.02813 0 0 1.02813 0 2.29167C0 3.55521 1.02813 4.58333 2.29167 4.58333ZM2.29167 1.25C2.86563 1.25 3.33333 1.71771 3.33333 2.29167C3.33333 2.86563 2.86563 3.33333 2.29167 3.33333C1.71771 3.33333 1.25 2.86563 1.25 2.29167C1.25 1.71771 1.71771 1.25 2.29167 1.25Z" fill="var(--fill-0, #666D85)"/>
<path d="M12.2917 11.6667H4.49583C4.22292 10.7062 3.33854 10 2.29167 10C1.02813 10 0 11.0281 0 12.2917C0 13.5552 1.02813 14.5833 2.29167 14.5833C3.33854 14.5833 4.22292 13.8771 4.49583 12.9167H12.2917C12.6365 12.9167 12.9167 12.6365 12.9167 12.2917C12.9167 11.9469 12.6365 11.6667 12.2917 11.6667ZM2.29167 13.3333C1.71771 13.3333 1.25 12.8656 1.25 12.2917C1.25 11.7177 1.71771 11.25 2.29167 11.25C2.86563 11.25 3.33333 11.7177 3.33333 12.2917C3.33333 12.8656 2.86563 13.3333 2.29167 13.3333Z" fill="var(--fill-0, #666D85)"/>
<path d="M10.625 5C9.57813 5 8.69375 5.70625 8.42083 6.66667H0.625C0.280208 6.66667 0 6.94688 0 7.29167C0 7.63646 0.280208 7.91667 0.625 7.91667H8.42083C8.69375 8.87708 9.57813 9.58333 10.625 9.58333C11.8885 9.58333 12.9167 8.55521 12.9167 7.29167C12.9167 6.02813 11.8885 5 10.625 5ZM10.625 8.33333C10.051 8.33333 9.58333 7.86563 9.58333 7.29167C9.58333 6.71771 10.051 6.25 10.625 6.25C11.199 6.25 11.6667 6.71771 11.6667 7.29167C11.6667 7.86563 11.199 8.33333 10.625 8.33333Z" fill="var(--fill-0, #666D85)"/>
</g>
</g>
</svg>
