<svg preserveAspectRatio="none" width="100%" height="100%" overflow="visible" style="display: block;" viewBox="0 0 40 40" fill="none" xmlns="http://www.w3.org/2000/svg">
<g id="Group 1686557251">
<path id="1" d="M0 20C0 12.5231 0 8.78461 1.60769 6C2.66091 4.17577 4.17577 2.66091 6 1.60769C8.78461 0 12.5231 0 20 0C27.4769 0 31.2154 0 34 1.60769C35.8242 2.66091 37.3391 4.17577 38.3923 6C40 8.78461 40 12.5231 40 20C40 27.4769 40 31.2154 38.3923 34C37.3391 35.8242 35.8242 37.3391 34 38.3923C31.2154 40 27.4769 40 20 40C12.5231 40 8.78461 40 6 38.3923C4.17577 37.3391 2.66091 35.8242 1.60769 34C0 31.2154 0 27.4769 0 20Z" fill="var(--fill-0, #F9F9FB)"/>
<path id="FB" d="M24.4362 12.0035L22.0843 12C19.4421 12 17.7345 13.6273 17.7345 16.1459V18.0574H15.3698C15.1655 18.0574 15 18.2113 15 18.4011V21.1707C15 21.3605 15.1657 21.5142 15.3698 21.5142H17.7345V28.5028C17.7345 28.6926 17.9 28.8463 18.1043 28.8463H21.1896C21.394 28.8463 21.5594 28.6924 21.5594 28.5028V21.5142H24.3243C24.5287 21.5142 24.6942 21.3605 24.6942 21.1707L24.6953 18.4011C24.6953 18.31 24.6562 18.2227 24.587 18.1582C24.5177 18.0937 24.4234 18.0574 24.3253 18.0574H21.5594V16.437C21.5594 15.6582 21.7592 15.2628 22.8515 15.2628L24.4358 15.2622C24.64 15.2622 24.8055 15.1084 24.8055 14.9187V12.347C24.8055 12.1576 24.6402 12.0039 24.4362 12.0035Z" fill="var(--fill-0, #666D85)"/>
</g>
</svg>
