<svg preserveAspectRatio="none" width="100%" height="100%" overflow="visible" style="display: block;" viewBox="0 0 33.6236 8.86307" fill="none" xmlns="http://www.w3.org/2000/svg">
<g id="Group">
<path id="Vector" d="M28.054 4.07176C28.054 3.09131 28.7056 2.09941 29.9518 2.09941C30.9263 2.09941 31.5073 2.79042 31.5073 3.94592V8.67431H33.6235V3.78918C33.6235 1.48848 32.2976 6.10352e-05 30.2463 6.10352e-05C29.3037 6.10352e-05 28.4474 0.307813 27.7891 0.877554L27.5992 0.204847H25.9356V8.67431H28.0517V4.07176H28.054Z" fill="var(--fill-0, black)"/>
<path id="Vector_2" d="M12.3512 0.00119474C9.97807 0.00119474 8.12007 1.94724 8.12007 4.43213C8.12007 6.91703 9.97921 8.86307 12.3523 8.86307C14.7254 8.86307 16.5846 6.91703 16.5846 4.43213C16.5846 1.94724 14.7254 0.00119474 12.3512 0.00119474ZM12.3512 6.76487C11.1425 6.76487 10.2669 5.78327 10.2669 4.43213C10.2669 3.081 11.1436 2.0994 12.3512 2.0994C13.5588 2.0994 14.4366 3.07986 14.4366 4.43213C14.4366 5.78441 13.5599 6.76487 12.3512 6.76487Z" fill="var(--fill-0, black)"/>
<path id="Vector_3" d="M2.11726 4.07176C2.11726 3.09131 2.76882 2.09941 4.01507 2.09941C4.98955 2.09941 5.57061 2.79042 5.57061 3.94592V8.67431H7.68787V3.78918C7.68787 1.48848 6.36202 6.10352e-05 4.31071 6.10352e-05C3.36806 6.10352e-05 2.51183 0.307813 1.85346 0.877554L1.66356 0.204847H0V8.67431H2.11726V4.07176Z" fill="var(--fill-0, black)"/>
<path id="Vector_4" d="M21.2705 0.00119474C18.8974 0.00119474 17.0383 1.94724 17.0383 4.43213C17.0383 6.91703 18.8974 8.86307 21.2705 8.86307C23.6436 8.86307 25.5028 6.91703 25.5028 4.43213C25.5028 1.94724 23.6436 0.00119474 21.2705 0.00119474ZM21.2705 6.76487C20.0629 6.76487 19.1862 5.78327 19.1862 4.43213C19.1862 3.081 20.0629 2.0994 21.2705 2.0994C22.4781 2.0994 23.3548 3.07986 23.3548 4.43213C23.3548 5.78441 22.4781 6.76487 21.2705 6.76487Z" fill="var(--fill-0, black)"/>
</g>
</svg>
