<svg preserveAspectRatio="none" width="100%" height="100%" overflow="visible" style="display: block;" viewBox="0 0 38.0316 20.3309" fill="none" xmlns="http://www.w3.org/2000/svg">
<g id="Group">
<path id="Vector" d="M37.9078 9.95165C37.8586 9.15973 37.6825 8.37542 37.3665 7.62727C36.9017 6.52646 36.1492 5.55837 35.2279 4.74285C34.7392 4.31091 34.2717 3.84932 33.7312 3.47117C32.7738 2.8006 31.6892 2.2947 30.5637 1.91728C28.4067 1.19545 26.1586 0.765714 23.8969 0.449098C20.2509 -0.0627756 16.6032 -0.210008 12.9776 0.462122C9.70637 1.06857 6.54032 2.50761 3.96069 4.46762C3.3403 4.93842 2.52103 5.71882 2.077 6.3402C1.03231 7.80142 2.26836 9.58915 3.01556 10.9131C3.67535 12.0799 4.3517 13.2391 5.04343 14.3905C5.66216 15.42 6.24779 16.4737 7.13614 17.3342C9.21815 19.3663 12.0848 20.1226 15.0243 20.2782C17.4036 20.4038 19.7872 20.2109 22.154 19.9674C24.1259 19.7643 26.0928 19.5272 28.0451 19.2033C29.7959 18.9133 31.6215 18.6509 33.2132 17.883C34.7977 17.1174 36.1726 15.9463 36.9644 14.4498C37.4131 13.6022 37.6573 12.6479 37.8138 11.7177C37.9116 11.1313 37.9453 10.5382 37.909 9.95055L37.9078 9.95165Z" fill="var(--fill-0, #3AC456)"/>
<path id="Vector_2" d="M1.25539 9.66094C1.11584 8.40118 1.44931 7.14282 2.48397 6.11944C2.75358 5.85314 3.05541 5.61439 3.38358 5.4109C4.04346 5.0028 4.75474 4.6531 5.48657 4.36838C6.9336 3.80443 8.44415 3.34513 9.94415 2.91225C11.418 2.48706 12.9124 2.12024 14.4299 1.85034C15.1566 1.72087 15.8869 1.61342 16.6209 1.52911C19.3611 1.21373 22.1385 1.2122 24.8908 1.40005C27.643 1.58789 28.2504 1.37907 32.4909 3.02133C33.9925 3.60257 35.3522 4.56031 36.365 5.75566C37.3837 6.95763 37.928 8.35198 37.9823 9.90018C38.045 11.7027 37.6818 13.9003 36.4685 15.3112C34.284 17.8479 30.5238 18.3156 27.1471 18.493C24.8278 18.6148 22.4982 18.5715 20.176 18.5711C19.0363 18.5704 17.8953 18.5685 16.7556 18.5634C12.2512 18.5451 7.86487 16.9611 4.2631 14.489C4.15933 14.4174 4.05441 14.3513 3.95656 14.273C2.55082 13.1501 1.44971 11.4052 1.25658 9.66094L1.25539 9.66094Z" fill="var(--fill-0, #E23F3B)"/>
<path id="Vector_3" d="M1.64252 14.9852C1.13555 14.46 0.723382 13.8631 0.441667 13.1902C-0.236119 11.5741 -0.00507245 9.74135 0.794839 8.20784C1.69136 6.49022 2.97716 5.54924 4.93579 5.00129C10.5005 3.44439 16.4615 3.8221 22.2501 3.27994C24.5066 3.06855 26.7528 2.71489 29.0222 2.69541C29.8988 2.68825 30.7911 2.73294 31.6203 3.00146C32.5996 3.31861 33.4389 3.93121 34.169 4.61544C35.1729 5.55569 36.017 6.66678 36.473 7.91988C36.9289 9.17298 36.9752 10.5747 36.4473 11.7974C35.4643 14.0719 32.8001 15.2689 30.2834 16.0205C26.9853 17.0054 23.5567 17.5811 20.1178 17.9968C15.9572 18.4992 11.6873 18.7634 7.58892 17.9005C5.38255 17.4359 3.11559 16.5114 1.6449 14.9863L1.64252 14.9852Z" fill="var(--fill-0, #FD7AAC)"/>
<path id="Vector_4" d="M15.27 2.97395C16.3291 2.80842 17.4212 2.61429 18.5335 2.41907C20.738 2.03192 22.7516 1.48064 24.5707 1.4818C27.6553 1.48376 30.1486 2.0412 31.9258 3.14304C34.3765 4.66247 34.9073 6.90935 34.9204 8.5274C34.9418 11.0756 33.8582 13.1783 31.6992 14.7785C28.7719 16.9494 24.0079 18.0053 18.2831 17.7518C13.4401 17.5374 9.05871 16.5142 5.94553 14.87C3.84624 13.7613 1.09965 11.7761 1.08363 8.88454C1.06373 5.00674 6.0155 4.421 15.2677 2.97285L15.27 2.97395Z" fill="var(--fill-0, #FFE32F)"/>
</g>
</svg>
