<svg preserveAspectRatio="none" width="100%" height="100%" overflow="visible" style="display: block;" viewBox="0 0 16.25 14.5833" fill="none" xmlns="http://www.w3.org/2000/svg">
<g id="vector">
<path d="M15 6.45833C15 5.4233 14.16 4.58333 13.125 4.58333H2.29167C1.91651 4.58333 1.56251 4.49319 1.25 4.3335V11.4583C1.25 12.4934 2.08997 13.3333 3.125 13.3333H13.125C14.16 13.3333 15 12.4934 15 11.4583V6.45833ZM13.3333 2.29167C13.3333 1.71601 12.8673 1.25 12.2917 1.25H2.29167C1.71601 1.25 1.25 1.71601 1.25 2.29167C1.25 2.86732 1.71601 3.33333 2.29167 3.33333H12.2917C12.8673 3.33333 13.3333 2.86732 13.3333 2.29167ZM14.5833 2.29167C14.5833 2.74826 14.4499 3.17355 14.2199 3.53078C15.4055 3.97462 16.25 5.11814 16.25 6.45833V11.4583C16.25 13.1837 14.8504 14.5833 13.125 14.5833H3.125C1.39961 14.5833 0 13.1837 0 11.4583V2.29167C0 1.02566 1.02566 0 2.29167 0H12.2917C13.5577 0 14.5833 1.02566 14.5833 2.29167Z" fill="var(--fill-0, #475067)"/>
<path d="M7.00208 8.48333C7.00208 7.85 7.42604 7.20833 8.23646 7.20833C8.86979 7.20833 9.24792 7.65521 9.24792 8.40208V11.4583H10.625V8.3C10.625 6.8125 9.7625 5.85104 8.42917 5.85104C7.81562 5.85104 7.25937 6.05 6.83021 6.41771L6.70729 5.98229H5.625V11.4573H7.00208V8.48229V8.48333Z" fill="var(--fill-0, #475067)"/>
</g>
</svg>
